<?xml version="1.0" encoding="UTF-8" standalone="no"?>
<svg
   xmlns:dc="http://purl.org/dc/elements/1.1/"
   xmlns:cc="http://creativecommons.org/ns#"
   xmlns:rdf="http://www.w3.org/1999/02/22-rdf-syntax-ns#"
   xmlns:svg="http://www.w3.org/2000/svg"
   xmlns="http://www.w3.org/2000/svg"
   xmlns:xlink="http://www.w3.org/1999/xlink"
   width="70.586655mm"
   height="77.503899mm"
   viewBox="0 0 70.586655 77.503899"
   version="1.1"
   id="svg1726">
  <defs
     id="defs1720">
    <clipPath
       clipPathUnits="userSpaceOnUse"
       id="clipPath18">
      <path
         d="M 0,595.276 H 841.89 V 0 H 0 Z"
         id="path16" />
    </clipPath>
    <linearGradient
       xlink:href="#linearGradient850"
       id="linearGradient852"
       x1="96.620857"
       y1="143.03879"
       x2="100.46131"
       y2="143.03879"
       gradientUnits="userSpaceOnUse" />
    <linearGradient
       id="linearGradient850">
      <stop
         style="stop-color:#000000;stop-opacity:1;"
         offset="0"
         id="stop846" />
      <stop
         style="stop-color:#000000;stop-opacity:0;"
         offset="1"
         id="stop848" />
    </linearGradient>
    <filter
       style="color-interpolation-filters:sRGB"
       id="filter1166"
       x="-0.18997136"
       width="1.3799427"
       y="-0.21279655"
       height="1.4255931">
      <feGaussianBlur
         stdDeviation="0.30399"
         id="feGaussianBlur1168" />
    </filter>
    <clipPath
       clipPathUnits="userSpaceOnUse"
       id="clipPath18-1">
      <path
         d="M 0,595.276 H 841.89 V 0 H 0 Z"
         id="path16-4" />
    </clipPath>
  </defs>
  <metadata
     id="metadata1723">
    <rdf:RDF>
      <cc:Work
         rdf:about="">
        <dc:format>image/svg+xml</dc:format>
        <dc:type
           rdf:resource="http://purl.org/dc/dcmitype/StillImage" />
        <dc:title></dc:title>
      </cc:Work>
    </rdf:RDF>
  </metadata>
  <g
     id="layer1"
     transform="translate(-82.635246,-118.48613)">
    <path
       style="fill:url(#linearGradient852);fill-opacity:1;stroke:none;stroke-width:0.0928317;filter:url(#filter1166)"
       d="m 96.621096,144.66066 c 0.0147,-0.442 0.829276,-2.33177 1.872129,-3.02036 0.731943,-0.48329 1.450143,-0.26795 1.450143,-0.26795 0.414772,0.026 0.652132,0.8538 0.437152,1.18841 -0.33348,0.51901 -2.068245,1.4158 -3.326055,2.03942 -0.378799,0.18781 -0.437877,0.19605 -0.433382,0.0604 z"
       id="path863"
       transform="matrix(9.8862489,0,0,9.6219396,-847.17636,-1203.835)" />
    <g
       id="g12"
       transform="matrix(0.35277777,0,0,-0.35277777,6.6101066,303.02354)">
      <g
         id="g14"
         clip-path="url(#clipPath18-1)">
        <g
           id="g20"
           transform="translate(287.5287,392.139)">
          <path
             d="m 0,0 c -31.836,0 -57.644,25.808 -57.644,57.644 0,31.835 25.808,57.643 57.644,57.643 31.836,0 57.644,-25.808 57.644,-57.643 C 57.644,25.808 31.836,0 0,0 m 71.524,58.932 c 0,39.502 -32.022,71.525 -71.524,71.525 -39.502,0 -71.524,-32.023 -71.524,-71.525 0,-14.762 4.475,-28.478 12.139,-39.871 h -0.004 l 0.041,-0.057 c 0.062,-0.094 0.129,-0.184 0.192,-0.277 L 0,-66.318 59.12,18.676 c 0.078,0.115 0.16,0.227 0.238,0.342 l 0.03,0.043 h -0.003 c 7.664,11.393 12.139,25.109 12.139,39.871"
             style="fill:#231f20;fill-opacity:1;fill-rule:nonzero;stroke:none"
             id="path22" />
        </g>
        <g
           id="g24"
           transform="translate(287.5287,392.139)">
          <path
             d="m 0,0 c -31.836,0 -57.644,25.808 -57.644,57.644 0,31.835 25.808,57.643 57.644,57.643 31.836,0 57.644,-25.808 57.644,-57.643 C 57.644,25.808 31.836,0 0,0 Z m 71.524,58.932 c 0,39.502 -32.022,71.525 -71.524,71.525 -39.502,0 -71.524,-32.023 -71.524,-71.525 0,-14.762 4.475,-28.478 12.139,-39.871 h -0.004 l 0.041,-0.057 c 0.062,-0.094 0.129,-0.184 0.192,-0.277 L 0,-66.318 59.12,18.676 c 0.078,0.115 0.16,0.227 0.238,0.342 l 0.03,0.043 h -0.003 c 7.664,11.393 12.139,25.109 12.139,39.871 z"
             style="fill:none;stroke:#231f20;stroke-width:1;stroke-linecap:butt;stroke-linejoin:miter;stroke-miterlimit:10;stroke-dasharray:none;stroke-opacity:1"
             id="path26" />
        </g>
        <g
           id="g28"
           transform="translate(339.0695,449.8359)">
          <path
             d="m 0,0 c 0,-28.465 -23.076,-51.541 -51.541,-51.541 -28.465,0 -51.541,23.076 -51.541,51.541 0,28.465 23.076,51.541 51.541,51.541 C -23.076,51.541 0,28.465 0,0 Z"
             style="fill:none;stroke:#231f20;stroke-width:4;stroke-linecap:butt;stroke-linejoin:miter;stroke-miterlimit:10;stroke-dasharray:none;stroke-opacity:1"
             id="path30" />
        </g>
        <g
           id="g32"
           transform="translate(249.0874,415.511)">
          <path
             d="M 0,0 H 76.884"
             style="fill:none;stroke:#231f20;stroke-width:4;stroke-linecap:butt;stroke-linejoin:miter;stroke-miterlimit:10;stroke-dasharray:none;stroke-opacity:1"
             id="path34" />
        </g>
        <g
           id="g36"
           transform="translate(261.7924,415.511)">
          <path
             d="M 0,0 V 63.373 L 29.878,75.157"
             style="fill:none;stroke:#231f20;stroke-width:4;stroke-linecap:butt;stroke-linejoin:miter;stroke-miterlimit:10;stroke-dasharray:none;stroke-opacity:1"
             id="path38" />
        </g>
        <g
           id="g40"
           transform="translate(309.8672,427.2222)">
          <path
             d="M 0,0 -12.2,3.114 V 50.172 L 0,44.085 Z M -18.868,65.216 V -11.711 H 5.651 v 63.093 z"
             style="fill:#231f20;fill-opacity:1;fill-rule:nonzero;stroke:none"
             id="path42" />
        </g>
        <g
           id="g44"
           transform="translate(303.902,475.9821)">
          <path
             d="M 0,0 V -50.362"
             style="fill:#231f20;fill-opacity:1;fill-rule:nonzero;stroke:#231f20;stroke-width:3;stroke-linecap:butt;stroke-linejoin:miter;stroke-miterlimit:10;stroke-dasharray:none;stroke-opacity:1"
             id="path46" />
        </g>
        <g
           id="g48"
           transform="translate(295.397,469.7332)">
          <path
             d="M 0,0 16.598,-7.519"
             style="fill:#231f20;fill-opacity:1;fill-rule:nonzero;stroke:#231f20;stroke-width:5;stroke-linecap:butt;stroke-linejoin:miter;stroke-miterlimit:10;stroke-dasharray:none;stroke-opacity:1"
             id="path50" />
        </g>
        <g
           id="g52"
           transform="translate(295.6029,458.3199)">
          <path
             d="M 0,0 16.598,-7.519"
             style="fill:#231f20;fill-opacity:1;fill-rule:nonzero;stroke:#231f20;stroke-width:5;stroke-linecap:butt;stroke-linejoin:miter;stroke-miterlimit:10;stroke-dasharray:none;stroke-opacity:1"
             id="path54" />
        </g>
        <g
           id="g56"
           transform="translate(294.9598,447.668)">
          <path
             d="M 0,0 16.598,-7.519"
             style="fill:#231f20;fill-opacity:1;fill-rule:nonzero;stroke:#231f20;stroke-width:5;stroke-linecap:butt;stroke-linejoin:miter;stroke-miterlimit:10;stroke-dasharray:none;stroke-opacity:1"
             id="path58" />
        </g>
        <g
           id="g60"
           transform="translate(294.3488,434.7411)">
          <path
             d="M 0,0 16.598,-7.519"
             style="fill:#231f20;fill-opacity:1;fill-rule:nonzero;stroke:#231f20;stroke-width:9;stroke-linecap:butt;stroke-linejoin:miter;stroke-miterlimit:10;stroke-dasharray:none;stroke-opacity:1"
             id="path62" />
        </g>
        <g
           id="g64"
           transform="translate(268.5845,462.336)">
          <path
             d="m 0,0 v -5.635 l 6.998,1.487 v 5.949 z"
             style="fill:#231f20;fill-opacity:1;fill-rule:nonzero;stroke:none"
             id="path66" />
        </g>
        <g
           id="g68"
           transform="translate(285.7502,455.5749)">
          <path
             d="M 0,0 -7.323,-1.527 V -7.555 L 0,-6.25 Z"
             style="fill:#231f20;fill-opacity:1;fill-rule:nonzero;stroke:none"
             id="path70" />
        </g>
        <g
           id="g72"
           transform="translate(275.5822,447.5132)">
          <path
             d="M 0,0 V 5.941 L -6.998,4.482 v -5.729 z"
             style="fill:#231f20;fill-opacity:1;fill-rule:nonzero;stroke:none"
             id="path74" />
        </g>
        <g
           id="g76"
           transform="translate(278.4271,469.4542)">
          <path
             d="M 0,0 7.323,1.912 V 7.94 L 0,5.824 Z"
             style="fill:#231f20;fill-opacity:1;fill-rule:nonzero;stroke:none"
             id="path78" />
        </g>
        <g
           id="g80"
           transform="translate(278.4271,443.4348)">
          <path
             d="m 0,0 v -6.146 l 7.323,0.761 v 6.662 z"
             style="fill:#231f20;fill-opacity:1;fill-rule:nonzero;stroke:none"
             id="path82" />
        </g>
        <g
           id="g84"
           transform="translate(275.5822,442.9385)">
          <path
             d="M 0,0 -6.998,-1.221 V -6.679 L 0,-5.942 Z"
             style="fill:#231f20;fill-opacity:1;fill-rule:nonzero;stroke:none"
             id="path86" />
        </g>
        <g
           id="g88"
           transform="translate(275.5822,468.7114)">
          <path
             d="m 0,0 v 5.745 0 L -6.998,3.724 v -5.551 z"
             style="fill:#231f20;fill-opacity:1;fill-rule:nonzero;stroke:none"
             id="path90" />
        </g>
        <g
           id="g92"
           transform="translate(278.4271,464.8688)">
          <path
             d="m 0,0 v -6.077 l 7.323,1.556 v 6.405 z"
             style="fill:#231f20;fill-opacity:1;fill-rule:nonzero;stroke:none"
             id="path94" />
        </g>
        <g
           id="g96"
           transform="translate(268.5845,416.6953)">
          <path
             d="m 0,0 v 13.012 l 6.998,0.672 V 0.524 L 9.843,0.437 v 13.534 l 7.323,0.67 V -0.437 Z"
             style="fill:#231f20;fill-opacity:1;fill-rule:nonzero;stroke:none"
             id="path98" />
        </g>
      </g>
    </g>
  </g>
</svg>
