<?xml version="1.0" encoding="UTF-8" standalone="no"?>
<svg
   xmlns:dc="http://purl.org/dc/elements/1.1/"
   xmlns:cc="http://creativecommons.org/ns#"
   xmlns:rdf="http://www.w3.org/1999/02/22-rdf-syntax-ns#"
   xmlns:svg="http://www.w3.org/2000/svg"
   xmlns="http://www.w3.org/2000/svg"
   xmlns:xlink="http://www.w3.org/1999/xlink"
   width="10.479844mm"
   height="24.232016mm"
   viewBox="0 0 10.479844 24.232016"
   version="1.1"
   id="svg8">
  <defs
     id="defs2">
    <linearGradient
       id="linearGradient850">
      <stop
         style="stop-color:#000000;stop-opacity:1;"
         offset="0"
         id="stop846" />
      <stop
         style="stop-color:#000000;stop-opacity:0;"
         offset="1"
         id="stop848" />
    </linearGradient>
    <linearGradient
       xlink:href="#linearGradient850"
       id="linearGradient852"
       x1="96.620857"
       y1="143.03879"
       x2="100.46131"
       y2="143.03879"
       gradientUnits="userSpaceOnUse" />
    <filter
       style="color-interpolation-filters:sRGB"
       id="filter1166"
       x="-0.18997136"
       width="1.3799427"
       y="-0.21279655"
       height="1.4255931">
      <feGaussianBlur
         stdDeviation="0.30399"
         id="feGaussianBlur1168" />
    </filter>
  </defs>
  <metadata
     id="metadata5">
    <rdf:RDF>
      <cc:Work
         rdf:about="">
        <dc:format>image/svg+xml</dc:format>
        <dc:type
           rdf:resource="http://purl.org/dc/dcmitype/StillImage" />
        <dc:title></dc:title>
      </cc:Work>
    </rdf:RDF>
  </metadata>
  <g
     id="layer1"
     transform="translate(-113.63311,-62.649625)">
    <g
       id="layer1-3"
       transform="translate(21.946666,-58.609026)">
      <path
         d="m 96.762037,131.98929 c -2.172758,0 -3.940704,1.76768 -3.940704,3.94044 0,2.07645 3.55891,8.35951 3.710516,8.62594 0.04736,0.0825 0.135203,0.13362 0.230188,0.13362 0.09499,0 0.182827,-0.0511 0.229923,-0.13388 0.151606,-0.26644 3.71052,-6.5495 3.71052,-8.62595 2.6e-4,-2.17249 -1.767685,-3.94017 -3.940443,-3.94017 z m 0,6.49472 c -1.408377,0 -2.554287,-1.14591 -2.554287,-2.55428 0,-1.40838 1.14591,-2.55455 2.554287,-2.55455 1.408377,0 2.554287,1.14591 2.554287,2.55428 0,1.40838 -1.14591,2.55455 -2.554287,2.55455 z"
         id="path833"
         style="stroke-width:0.264583" />
      <path
         style="fill:url(#linearGradient852);fill-opacity:1;stroke:none;stroke-width:0.0928317;filter:url(#filter1166)"
         d="m 96.621096,144.66066 c 0.0147,-0.442 0.829276,-2.33177 1.872129,-3.02036 0.731943,-0.48329 1.450143,-0.26795 1.450143,-0.26795 0.414772,0.026 0.652132,0.8538 0.437152,1.18841 -0.33348,0.51901 -2.068245,1.4158 -3.326055,2.03942 -0.378799,0.18781 -0.437877,0.19605 -0.433382,0.0604 z"
         id="path863"
         transform="matrix(1.1825492,0,0,1.2044826,-17.49691,-29.740623)" />
      <path
         style="fill:#000000;fill-opacity:1;stroke:#000000;stroke-width:0.35086"
         d=""
         id="path865"
         transform="scale(0.26458333)" />
    </g>
    <g
       id="g894"
       transform="matrix(0.11922932,0,0,0.11922932,113.63311,62.649625)">
      <g
         id="g873">
        <g
           id="g871">
          <path
             d="M 84,24.27 83.63,23.76 42.37,0 H 41.61 L 0.38,23.75 0,24.34 0.27,65.34 0.52,66.19 41.81,90 h 0.76 L 84,66.12 84.27,65.25 Z M 42.86,50.18 46.07,52 42.26,54.21 c -0.034,0.017 -0.065,0.041 -0.09,0.07 -0.053,0.057 -0.082,0.132 -0.08,0.21 v 0 V 57 L 39.63,55.61 V 52 Z M 22.33,66 v 4.9 H 21.7 v -5.22 0 l 7,-4.05 0.11,0.06 v 13.17 h -0.63 v -5.41 z m 2.44,1.79 3.06,1.79 v 2.19 L 22.8,69 Z m -2.12,0.65 V 66.6 l 1.64,1 z m -1.26,-2.78 v 2.46 l -2.46,-1.39 v -3.51 l 2.88,-1.66 3.19,1.82 -3.46,2 -0.09,0.08 c -0.052,0.058 -0.081,0.132 -0.08,0.21 0.002,0.014 0.005,0.027 0.01,0.04 z m 0,3 v 0.48 l -2.46,1.4 v -3.21 z m 7.29,-7.42 c -0.052,-0.014 -0.108,-0.014 -0.16,0 l -3,1.75 -3.21,-1.82 6.64,-3.83 1.62,0.92 v 0.18 l -1.71,1 c -0.037,0.019 -0.061,0.058 -0.06,0.1 v 1.71 z m -3.23,-9.11 1.12,-0.66 v 1.31 z M 42.08,58 v 1.82 c 0,0.177 0.143,0.32 0.32,0.32 H 43 c 0.177,0 0.32,-0.143 0.32,-0.32 v -1.56 l 5.18,2.94 v 0.06 l -5.92,3.37 -6.14,-3.48 2,-1.13 v 1.54 h 1.17 v -2.2 z m -2.46,0.84 V 56.15 L 42,57.47 Z m 9.75,-8.35 0.11,0.06 V 63.69 H 48.85 V 58.28 L 43,54.87 v 4.9 h -0.6 v -5.27 0 z m 7.36,0.27 5.11,2.94 -5.11,2.92 v -2 0 z m -0.32,4.15 v 4.89 h -0.63 v -4.57 z m -0.95,1.9 -1.17,-0.66 1.17,-0.67 z m -1.66,-0.38 1.63,0.92 -5.63,3.19 v -1.83 z m -4,4.71 5.67,-3.24 v 1.9 c 0,0.177 0.143,0.32 0.32,0.32 h 0.63 c 0.177,0 0.32,-0.143 0.32,-0.32 V 58 l 6,3.38 -6.36,3.63 -6.53,-3.7 V 61.1 Z m 0,2.59 v -1.82 l 6,3.43 -6,3.41 -6.75,-3.83 5.42,-3.09 v 1.87 c 0,0.177 0.143,0.32 0.32,0.32 h 0.63 c 0.174,0.033 0.341,-0.08 0.375,-0.254 C 49.8,63.741 49.802,63.715 49.8,63.69 Z M 31.71,57.87 v -2 0 0 l 3.66,-2.09 3.12,1.77 v 4 L 36,60.85 v -5.26 c 10e-4,-0.042 -0.023,-0.081 -0.06,-0.1 -0.034,-0.02 -0.076,-0.02 -0.11,0 z m 4,8.17 V 71 h -0.63 v -4.6 z m -0.95,0.57 v 1.74 L 33.24,67.49 Z M 42.12,64.92 36,68.4 v -2.6 0 -4.34 z M 36,69 42.59,65.24 49.37,69 42.69,72.81 36,69.06 Z m 7.32,-11.72 1.56,-0.89 3.62,2.12 v 2.18 L 43.35,57.7 Z m 0,-0.56 v -1.29 l 1.08,0.63 z m -4.89,-1.75 -2.62,-1.49 2.62,-1.5 z m -3.12,-1.77 -5.86,-3.33 3,-1.75 5.81,3.4 z M 27.7,48.95 v -3.6 l 3.08,1.81 z m 1.3,1.17 5.86,3.32 -3.66,2.08 -3.47,-2 v -2.66 z m 1.56,6.39 v 1.29 l -1.13,-0.64 z m -1.46,13.37 3.66,-2.11 2,1.14 v 0.21 l -5.66,3.24 z m 5.67,-0.2 V 71 c 0,0.177 0.143,0.32 0.32,0.32 h 0.63 C 35.881,71.3 36.001,71.162 36,71 v -1.38 l 6.17,3.5 -6,3.43 -6.76,-3.83 z m 7.93,3.72 5.77,3.27 -6,3.44 -5.77,-3.27 z m 0.49,-0.28 6.68,-3.81 5.77,3.27 -6.64,3.81 z m 7.17,-4.12 6,-3.41 5.77,3.27 -6,3.4 z M 56.82,65.31 63.18,61.68 69,65 62.64,68.63 Z m 6.85,-3.91 5.78,-3.3 5.67,3.33 -5.67,3.27 z m -0.5,-0.28 -6.45,-3.66 v -0.35 l 5.6,-3.2 6.68,3.93 z m -6.45,-12 v -4.7 c 0.003,-0.04 -0.016,-0.078 -0.05,-0.1 -0.034,-0.02 -0.076,-0.02 -0.11,0 l -1.82,1 V 26.89 l 13.9,7.84 z M 51.25,46 50.67,45.67 51.25,45.33 Z m -0.18,1.47 -1.53,0.88 c -0.037,0.019 -0.061,0.058 -0.06,0.1 v 1.71 h -0.11 c -0.052,-0.014 -0.108,-0.014 -0.16,0 l -2.66,1.54 -3.2,-1.8 6,-3.45 z M 1.64,24.7 41.44,1.7 v 36.6 l -2,-1.16 -12.87,7.47 v 0 5 l -2.81,1.63 -5,-2.9 -12.89,7.44 v 0 5.77 l -4,2.32 z m 13.56,40 -5.63,-3.23 3,-1.75 5.19,3 v 0.44 z m 2.56,-0.9 v 2.35 L 15.69,64.98 Z M 7,60.9 v -4.42 l 3.81,2.23 z m 1.3,7.72 -5.5,-3.19 3.06,-1.79 v 1.88 H 7 V 63 l 2.06,-1.2 5.62,3.19 -6.36,3.59 c 0,0 -0.01,0.03 -0.02,0.04 z m 7,4.07 -6.55,-3.8 6.43,-3.67 2.56,1.45 v 4.61 l -2.41,1.38 c 0,0 0,0.02 -0.01,0.03 z m 0.47,0.27 2,-1.12 v 0.89 h 1.16 v -1.55 l 2.46,-1.4 v 1.17 c 0,0.177 0.143,0.32 0.32,0.32 h 0.63 c 0.177,0 0.32,-0.143 0.32,-0.32 v -1.5 l 5.18,2.94 v 0.69 l -6,3.41 z m 6.56,3.8 5.48,-3.13 v 1.22 c 0,0.177 0.143,0.32 0.32,0.32 h 0.63 c 0.177,0 0.32,-0.143 0.32,-0.32 V 73.1 l 6.59,3.74 -6.67,3.8 z m 7.17,4.16 6.67,-3.81 5.83,3.28 -6.73,3.84 z m 12.67,7.35 -6.47,-3.75 6.74,-3.85 6.56,3.69 z m 7.26,-4.2 -6.5,-3.68 L 49,77 l 6.46,3.66 z m 6.47,-3.74 -6.45,-3.66 6.68,-3.81 6.41,3.63 z m 7.1,-4.12 -6.4,-3.63 6,-3.41 6.4,3.61 z m 6.42,-3.72 -6.36,-3.61 6.36,-3.63 6.32,3.59 z m 6.81,-3.94 -6.29,-3.55 5.67,-3.23 6.17,3.62 z M 69.3,56.35 V 34.52 l -0.19,-0.32 -14.5,-8.27 -0.57,0.32 v 19.52 l -1.6,0.92 v 0 -2 0 l -10,-5.8 V 1.69 l 39.88,23 0.21,39.19 z"
             id="path865-2" />
          <path
             d="m 72.92,36.37 4.62,2.72 -4.62,1.8 v -4.52 m -0.29,-0.51 v 5.2 l 5.21,3.06 v -5.2 z"
             id="path867" />
          <path
             d="m 46.2,22.36 4.62,2.72 -4.62,1.8 V 22.36 M 45.91,21.85 V 27 l 5.21,3.07 v -5.2 L 45.9,21.84 Z"
             id="path869" />
        </g>
      </g>
    </g>
  </g>
</svg>
