<?xml version="1.0" encoding="UTF-8" standalone="no"?>
<svg
   xmlns:dc="http://purl.org/dc/elements/1.1/"
   xmlns:cc="http://creativecommons.org/ns#"
   xmlns:rdf="http://www.w3.org/1999/02/22-rdf-syntax-ns#"
   xmlns:svg="http://www.w3.org/2000/svg"
   xmlns="http://www.w3.org/2000/svg"
   xmlns:xlink="http://www.w3.org/1999/xlink"
   width="70.586655mm"
   height="77.503899mm"
   viewBox="0 0 70.586655 77.503899"
   version="1.1"
   id="svg1726">
  <defs
     id="defs1720">
    <clipPath
       clipPathUnits="userSpaceOnUse"
       id="clipPath18">
      <path
         d="M 0,595.276 H 841.89 V 0 H 0 Z"
         id="path16" />
    </clipPath>
    <linearGradient
       xlink:href="#linearGradient850"
       id="linearGradient852"
       x1="96.620857"
       y1="143.03879"
       x2="100.46131"
       y2="143.03879"
       gradientUnits="userSpaceOnUse" />
    <linearGradient
       id="linearGradient850">
      <stop
         style="stop-color:#000000;stop-opacity:1;"
         offset="0"
         id="stop846" />
      <stop
         style="stop-color:#000000;stop-opacity:0;"
         offset="1"
         id="stop848" />
    </linearGradient>
    <filter
       style="color-interpolation-filters:sRGB"
       id="filter1166"
       x="-0.18997136"
       width="1.3799427"
       y="-0.21279655"
       height="1.4255931">
      <feGaussianBlur
         stdDeviation="0.30399"
         id="feGaussianBlur1168" />
    </filter>
    <clipPath
       clipPathUnits="userSpaceOnUse"
       id="clipPath18-1">
      <path
         d="M 0,595.276 H 841.89 V 0 H 0 Z"
         id="path16-4" />
    </clipPath>
    <clipPath
       clipPathUnits="userSpaceOnUse"
       id="clipPath106">
      <path
         d="M 0,595.276 H 841.89 V 0 H 0 Z"
         id="path104" />
    </clipPath>
  </defs>
  <metadata
     id="metadata1723">
    <rdf:RDF>
      <cc:Work
         rdf:about="">
        <dc:format>image/svg+xml</dc:format>
        <dc:type
           rdf:resource="http://purl.org/dc/dcmitype/StillImage" />
        <dc:title></dc:title>
      </cc:Work>
    </rdf:RDF>
  </metadata>
  <g
     id="layer1"
     transform="translate(-82.635246,-118.48613)">
    <path
       style="fill:url(#linearGradient852);fill-opacity:1;stroke:none;stroke-width:0.0928317;filter:url(#filter1166)"
       d="m 96.621096,144.66066 c 0.0147,-0.442 0.829276,-2.33177 1.872129,-3.02036 0.731943,-0.48329 1.450143,-0.26795 1.450143,-0.26795 0.414772,0.026 0.652132,0.8538 0.437152,1.18841 -0.33348,0.51901 -2.068245,1.4158 -3.326055,2.03942 -0.378799,0.18781 -0.437877,0.19605 -0.433382,0.0604 z"
       id="path863"
       transform="matrix(9.8862489,0,0,9.6219396,-847.17636,-1203.835)" />
    <g
       id="g100"
       transform="matrix(0.35277777,0,0,-0.35277777,-62.666593,303.02354)"
       style="stroke:#000000;stroke-opacity:1;fill:#fbbb8b;fill-opacity:1">
      <g
         id="g102"
         clip-path="url(#clipPath106)"
         style="stroke:#000000;stroke-opacity:1;fill:#fbbb8b;fill-opacity:1;stroke-width:0.99975;stroke-miterlimit:4;stroke-dasharray:none">
        <g
           id="g108"
           transform="translate(483.9036,392.139)"
           style="stroke:#000000;stroke-opacity:1;fill:#fbbb8b;fill-opacity:1;stroke-width:0.99975;stroke-miterlimit:4;stroke-dasharray:none">
          <path
             d="m 0,0 c -31.836,0 -57.644,25.808 -57.644,57.644 0,31.835 25.808,57.643 57.644,57.643 31.836,0 57.644,-25.808 57.644,-57.643 C 57.644,25.808 31.836,0 0,0 m 71.524,58.932 c 0,39.502 -32.022,71.525 -71.524,71.525 -39.502,0 -71.524,-32.023 -71.524,-71.525 0,-14.762 4.475,-28.478 12.139,-39.871 h -0.004 l 0.041,-0.057 c 0.062,-0.094 0.129,-0.184 0.192,-0.277 L 0,-66.318 59.12,18.676 c 0.078,0.115 0.16,0.227 0.238,0.342 l 0.03,0.043 h -0.003 c 7.664,11.393 12.139,25.109 12.139,39.871"
             style="fill:#fbbb8b;fill-opacity:1;fill-rule:nonzero;stroke:#000000;stroke-opacity:1;stroke-width:0.99975;stroke-miterlimit:4;stroke-dasharray:none"
             id="path110" />
        </g>
        <g
           id="g112"
           transform="translate(483.9036,392.139)"
           style="stroke:#000000;stroke-opacity:1;fill:#fbbb8b;fill-opacity:1;stroke-width:0.99975;stroke-miterlimit:4;stroke-dasharray:none">
          <path
             d="m 0,0 c -31.836,0 -57.644,25.808 -57.644,57.644 0,31.835 25.808,57.643 57.644,57.643 31.836,0 57.644,-25.808 57.644,-57.643 C 57.644,25.808 31.836,0 0,0 Z m 71.524,58.932 c 0,39.502 -32.022,71.525 -71.524,71.525 -39.502,0 -71.524,-32.023 -71.524,-71.525 0,-14.762 4.475,-28.478 12.139,-39.871 h -0.004 l 0.041,-0.057 c 0.062,-0.094 0.129,-0.184 0.192,-0.277 L 0,-66.318 59.12,18.676 c 0.078,0.115 0.16,0.227 0.238,0.342 l 0.03,0.043 h -0.003 c 7.664,11.393 12.139,25.109 12.139,39.871 z"
             style="fill:#fbbb8b;stroke:none;stroke-width:0.99975;stroke-linecap:butt;stroke-linejoin:miter;stroke-miterlimit:4;stroke-dasharray:none;stroke-opacity:1;fill-opacity:1"
             id="path114" />
        </g>
        <g
           id="g116"
           transform="translate(535.4445,449.8359)"
           style="stroke:#000000;stroke-opacity:1;fill:#fbbb8b;fill-opacity:1;stroke-width:0.99975;stroke-miterlimit:4;stroke-dasharray:none">
          <path
             d="m 0,0 c 0,-28.465 -23.076,-51.541 -51.541,-51.541 -28.465,0 -51.541,23.076 -51.541,51.541 0,28.465 23.076,51.541 51.541,51.541 C -23.076,51.541 0,28.465 0,0 Z"
             style="fill:#fbbb8b;stroke:none;stroke-width:0.99975;stroke-linecap:butt;stroke-linejoin:miter;stroke-miterlimit:4;stroke-dasharray:none;stroke-opacity:1;fill-opacity:1"
             id="path118" />
        </g>
        <g
           id="g120"
           transform="translate(437.5815,426.511)"
           style="stroke:#000000;stroke-opacity:1;fill:#fbbb8b;fill-opacity:1;stroke-width:0.99975;stroke-miterlimit:4;stroke-dasharray:none">
          <path
             d="M 1.7934375,-0.29890625 91.449375,0"
             style="fill:#fbbb8b;fill-opacity:1;stroke:#000000;stroke-width:3.99975;stroke-linecap:butt;stroke-linejoin:miter;stroke-miterlimit:4;stroke-dasharray:none;stroke-opacity:1"
             id="path122" />
        </g>
        <g
           id="g124"
           transform="translate(456.3719,426.511)"
           style="stroke:#000000;stroke-opacity:1;fill:#fbbb8b;fill-opacity:1;stroke-width:0.99975;stroke-miterlimit:4;stroke-dasharray:none">
          <path
             d="M 0,0 V 21.091"
             style="fill:#fbbb8b;stroke:#000000;stroke-width:3.99975001;stroke-linecap:butt;stroke-linejoin:miter;stroke-miterlimit:4;stroke-dasharray:none;stroke-opacity:1;fill-opacity:1"
             id="path126" />
        </g>
        <g
           id="g128"
           transform="translate(486.0132,426.511)"
           style="stroke:#000000;stroke-opacity:1;fill:#fbbb8b;fill-opacity:1;stroke-width:0.99975;stroke-miterlimit:4;stroke-dasharray:none">
          <path
             d="M 0,0 V 25.035"
             style="fill:#fbbb8b;stroke:#000000;stroke-width:3.99975001;stroke-linecap:butt;stroke-linejoin:miter;stroke-miterlimit:4;stroke-dasharray:none;stroke-opacity:1;fill-opacity:1"
             id="path130" />
        </g>
        <g
           id="g132"
           transform="translate(512.0687,426.511)"
           style="stroke:#000000;stroke-opacity:1;fill:#fbbb8b;fill-opacity:1;stroke-width:0.99975;stroke-miterlimit:4;stroke-dasharray:none">
          <path
             d="M 0,0 V 28.382"
             style="fill:#fbbb8b;stroke:#000000;stroke-width:3.99975001;stroke-linecap:butt;stroke-linejoin:miter;stroke-miterlimit:4;stroke-dasharray:none;stroke-opacity:1;fill-opacity:1"
             id="path134" />
        </g>
        <g
           id="g136"
           transform="translate(509.4393,463.9325)"
           style="stroke:#000000;stroke-opacity:1;fill:#fbbb8b;fill-opacity:1;stroke-width:0.99975;stroke-miterlimit:4;stroke-dasharray:none">
          <path
             d="m 0,0 v 11.984 l -4.749,6.586 h -5.888 l -33.705,-7.172 -17.211,-31.043 40.039,2.183 10.877,16.55 v 13.417 l 1.927,2.479 h 2.168 l 2,-2.517 V -1.032 l 9.323,-16.613 h 5.334 z"
             style="fill:#000000;fill-opacity:1;fill-rule:nonzero;stroke:#000000;stroke-opacity:1;stroke-width:3.99975001;stroke-miterlimit:4;stroke-dasharray:none"
             id="path138" />
        </g>
        <g
           id="g140"
           transform="translate(466.0233,427.1397)"
           style="stroke:#000000;stroke-opacity:1;fill:#fbbb8b;fill-opacity:1;stroke-width:0.99975;stroke-miterlimit:4;stroke-dasharray:none">
          <path
             d="m 0,0 v 14.738 l 6.269,0.33 V 0.66 Z"
             style="fill:#fbbb8b;fill-opacity:1;fill-rule:nonzero;stroke:#000000;stroke-opacity:1;stroke-width:0.99975;stroke-miterlimit:4;stroke-dasharray:none"
             id="path142" />
        </g>
        <g
           id="g144"
           transform="translate(496.7183,427.1397)"
           style="stroke:#000000;stroke-opacity:1;fill:#fbbb8b;fill-opacity:1;stroke-width:0.99975;stroke-miterlimit:4;stroke-dasharray:none">
          <path
             d="M 0,0 V 16.167 H 7.479 V 0"
             style="fill:#fbbb8b;fill-opacity:1;fill-rule:nonzero;stroke:#000000;stroke-opacity:1;stroke-width:0.99975;stroke-miterlimit:4;stroke-dasharray:none"
             id="path146" />
        </g>
      </g>
    </g>
  </g>
</svg>
