<?xml version="1.0" encoding="UTF-8" standalone="no"?>
<svg
   xmlns:dc="http://purl.org/dc/elements/1.1/"
   xmlns:cc="http://creativecommons.org/ns#"
   xmlns:rdf="http://www.w3.org/1999/02/22-rdf-syntax-ns#"
   xmlns:svg="http://www.w3.org/2000/svg"
   xmlns="http://www.w3.org/2000/svg"
   xmlns:xlink="http://www.w3.org/1999/xlink"
   width="10.768664mm"
   height="24.229456mm"
   viewBox="0 0 10.768665 24.229456"
   version="1.1"
   id="svg8">
  <defs
     id="defs2">
    <linearGradient
       id="linearGradient850">
      <stop
         style="stop-color:#000000;stop-opacity:1;"
         offset="0"
         id="stop846" />
      <stop
         style="stop-color:#000000;stop-opacity:0;"
         offset="1"
         id="stop848" />
    </linearGradient>
    <linearGradient
       xlink:href="#linearGradient850"
       id="linearGradient852"
       x1="96.620857"
       y1="143.03879"
       x2="100.46131"
       y2="143.03879"
       gradientUnits="userSpaceOnUse" />
    <filter
       style="color-interpolation-filters:sRGB"
       id="filter1166"
       x="-0.18997136"
       width="1.3799427"
       y="-0.21279655"
       height="1.4255931">
      <feGaussianBlur
         stdDeviation="0.30399"
         id="feGaussianBlur1168" />
    </filter>
    <style
       type="text/css"
       id="style923">
   
    .fil1 {fill:none}
    .fil0 {fill:black;fill-rule:nonzero}
   
  </style>
    <clipPath
       clipPathUnits="userSpaceOnUse"
       id="clipPath1278">
      <path
         id="path1280"
         style="fill:#ff0000;fill-opacity:1;fill-rule:nonzero;stroke:none;stroke-width:1.23303"
         d="M 3.7664371e-4,9.1451673e-4 V 50.001197 H 50.00066 V 9.1451673e-4 Z M 22.209346,8.4563135 c 0.1403,-0.00887 0.280376,-0.0088 0.419037,0.00963 0.684178,0.090981 1.351663,0.2777801 2.027755,0.416629 0.637203,0.3887037 0.606808,0.3925759 0.900689,0.6694961 0.0096,0.00456 0.03199,0.012579 0.04094,0.016858 0.15982,0.076349 0.520591,0.4803964 0.385322,0.3660555 C 25.658652,9.660739 25.666553,9.6554654 25.556823,9.5520687 25.065291,9.3188643 23.744882,8.7283203 24.13595,9.0511507 c 0.908466,0.7499439 1.425791,1.0550473 1.743579,1.1752303 0.330414,-0.04873 0.66964,-0.07324 1.02592,-0.04335 0.382388,-0.04003 1.03574,-0.115732 1.500344,-0.04576 0.03439,-0.02234 0.139993,-0.10065 0.18062,-0.127638 -0.07011,-0.074341 0.799759,-0.5646613 1.090941,-0.7995424 0.04764,-0.019806 0.183798,-0.090573 0.142088,-0.060206 -0.650145,0.4733253 -0.954463,0.6762633 -1.230621,0.8597484 0.01073,0.0099 0.03771,0.01298 0.08911,0.0048 1.049188,-0.1666228 1.922099,-1.1556312 2.983834,-1.1198403 1.445101,0.048728 2.214278,1.5542163 2.856196,2.5672043 -0.02604,0.269766 -0.07529,0.539509 -0.115597,0.809175 0.06322,-0.0013 0.120714,0.0082 0.180619,0.01205 -0.0052,-0.03522 -0.01208,-0.07081 -0.01686,-0.105963 -0.01048,-0.07697 -0.147132,-0.2719 -0.118001,-0.199885 0.03031,0.07495 0.115806,0.194995 0.192661,0.308257 1.234411,0.113914 1.793304,1.281073 2.579246,2.408259 0.317223,1.166142 0.336097,1.029703 0.373279,2.57443 0.0043,0.176793 -0.05398,0.349271 -0.08911,0.522592 -0.167857,0.828312 -0.411749,1.633154 -0.638188,2.446792 -0.157515,0.58901 -0.458216,1.717548 -0.604474,2.230048 -0.106904,0.374596 -0.192037,0.757372 -0.334748,1.119841 -0.08886,0.225708 -0.204003,0.439754 -0.301033,0.662271 0.0094,0.02717 0.01687,0.04446 0.02649,0.07224 5.3e-4,0.02248 0.02123,0.07969 0.0025,0.06743 -0.02423,-0.01577 -0.03162,-0.02581 -0.06502,-0.05779 -0.0054,0.01221 -0.01147,0.02397 -0.01685,0.03613 0.210711,0.240593 0.451202,0.464399 0.546675,0.763417 0.178131,0.557904 0.330346,1.14279 0.375688,1.729131 0.131971,0.419846 0.245805,0.868667 0.356423,1.428098 4.61e-4,0.05727 -0.0027,0.113833 -0.0025,0.170986 0.03003,0.207076 0.0078,0.687493 -0.01208,1.047593 0.154381,0.899504 0.02816,1.68592 -0.366056,2.579246 -0.01196,0.02636 -0.02054,0.0548 -0.03131,0.08188 0.807956,0.155754 1.164166,0.729476 2.504589,2.494956 0.188071,0.247712 0.02655,1.006338 -0.06021,1.444956 -0.124967,0.63161 -0.09948,0.556417 -0.792318,1.611126 -0.17852,0.271762 -1.668062,1.494406 -1.873625,1.661699 -0.170648,0.128236 -0.328398,0.275664 -0.51296,0.382913 -0.944974,0.549121 -1.114013,0.611187 -2.126493,0.804359 -0.188437,0.03593 -0.382383,0.04493 -0.573166,0.06502 -0.101379,0.01073 -0.308397,0.09446 -0.368463,0.07466 -0.145564,0.05799 -0.33549,0.111552 -0.474427,0.13727 -0.09736,0.02848 -0.192231,0.06727 -0.2914,0.08911 -0.288934,0.06361 -0.929317,0.0048 -1.257111,-0.0289 -0.08714,-0.009 -0.08866,-0.0136 -0.127638,-0.02168 -0.118273,-0.0099 -0.357346,-0.0327 -0.185436,-0.0096 -0.0074,-0.0014 -0.01661,10e-4 -0.02408,0 -0.01184,0.0039 -0.0079,-4e-5 -0.0289,0.0073 -0.08261,-0.0037 -0.167094,0.0047 -0.250459,0.0073 -0.192539,0.02379 -0.388589,0.0634 -0.556308,0.06984 -0.401159,0.01536 -0.800794,-0.0022 -1.192089,-0.06261 -2.943299,0.106164 -5.988884,0.410609 -8.823862,-0.575573 -0.221434,-0.07541 -0.634584,-0.205849 -1.018693,-0.332341 0,0 -0.0025,0 -0.0025,0 -0.234367,0.01435 -1.287694,0.08827 -1.444956,0.04094 -0.907549,-0.273171 -1.752226,-0.720765 -2.64186,-1.047594 -0.05816,-0.02137 0.08347,0.09301 0.134862,0.127639 0.426445,0.287244 0.82097,0.470808 0.515368,0.325115 -1.354291,-0.638122 -1.811404,-1.584764 -2.186602,-2.878002 -0.201432,-0.646056 -0.572678,-1.000555 -0.671905,-1.753213 -0.06071,-0.460492 -0.370615,-1.193482 0.04817,-1.394382 0.232396,-0.11149 0.321657,-0.158242 0.529818,-0.260092 0.01554,0.03778 0.113087,0.08329 0.310665,0.137272 0.397603,0.108617 0.934914,0.189986 1.497937,0.250457 -0.0049,-0.05889 -0.02576,-0.11641 -0.02408,-0.175802 0.0037,-0.131237 0.02863,-0.261728 0.04094,-0.392546 -0.728472,0.0106 -1.346183,0.03322 -1.642433,0.08911 0.662152,-0.325891 1.308527,-0.644657 1.750805,-0.864566 0.04594,-0.234206 0.09262,-0.468078 0.15172,-0.698396 0.06538,-0.254793 0.221502,-0.478851 0.358831,-0.703211 0.0081,-0.01322 0.01832,-0.02766 0.02649,-0.04094 -0.352521,-0.492758 -0.62831,-1.032817 -1.081308,-1.765255 -0.09987,-0.408678 -0.247726,-0.985858 -0.315482,-1.375116 -0.150172,-0.862741 -0.01087,-1.737085 0.192661,-2.576838 0.581421,-1.261976 0.652853,-1.302558 1.242662,-1.825461 0.09219,-0.527795 0.24344,-0.988745 0.440711,-1.413648 -0.418678,-0.132374 -0.886578,-0.346207 -0.869382,-0.341973 0.305534,0.07526 0.604818,0.172639 0.905506,0.264909 0.111638,-0.230316 0.235187,-0.452123 0.378097,-0.662271 -0.490392,-1.644695 -1.298713,-3.19228 -1.919383,-4.797253 0.397864,-0.15439 0.790023,-0.328656 1.194497,-0.464794 0.0715,-0.02404 0.152898,0.0026 0.226376,-0.01445 0.06895,-0.01603 0.135833,-0.03885 0.204702,-0.05539 0.02542,-0.132377 0.184472,-0.14872 0.399772,-0.108371 0.147811,-0.04 0.297721,-0.07016 0.443119,-0.118001 0.180471,-0.05938 0.366744,-0.191155 0.551491,-0.315482 -0.15385,-0.296485 -0.30386,-0.594264 -0.474426,-0.881423 -0.0043,-0.0073 -0.0174,0.003 -0.02408,0 -0.0942,0.07816 -0.192862,0.179055 -0.27695,0.223969 -0.103352,0.0552 0.184453,-0.265694 0.27695,-0.223969 0.226338,-0.187803 0.413035,-0.383042 0.575574,-0.546675 -0.0819,-0.490142 -0.205915,-1.137157 -0.05057,-1.505162 0.339062,-0.803233 1.006858,-1.429814 1.404016,-2.205966 0.09992,-0.1952782 -0.206359,0.109886 -0.503328,0.450345 -0.126999,0.224112 -0.244408,0.45741 -0.380504,0.674312 -0.305996,0.177521 0.03256,-0.275415 0.380504,-0.674312 0.108618,-0.191661 0.224029,-0.379014 0.378098,-0.5346338 0.956107,-0.9657419 2.047861,-1.2875851 3.333031,-1.456997 0.138682,-0.018281 0.278736,-0.034479 0.419037,-0.043348 z M 36.837114,29.506909 c -0.0023,-0.01344 -0.0072,-0.02745 -0.0096,-0.04094 -0.0057,0.154047 0.0012,0.307793 -0.0096,0.462386 -0.0048,0.06932 0.01134,-0.277357 0.01927,-0.421446 z m -0.0096,-0.04094 c 0.01245,-0.335377 0.02338,-0.670102 0.02168,-1.006652 -0.01782,-0.122896 -0.05465,-0.08836 -0.142088,0.438303 0.05942,0.19921 0.08671,0.381861 0.120417,0.568349 z M 15.157962,23.534426 c -0.08071,0.121367 -0.06179,0.149844 -0.06261,0.515368 0.0131,-0.183095 0.04024,-0.345536 0.06261,-0.515368 z M 15.013466,36.20428 c -0.681292,0.133545 -1.365661,0.261021 -1.998855,0.19266 0.05731,0.07936 0.111155,0.143649 0.16617,0.195069 0.0084,-0.0068 0.0013,-0.02073 0.01686,-0.02408 0.280832,-0.06039 0.669462,-0.06485 1.086125,-0.05058 0.203061,-0.08356 0.426661,-0.174854 0.729702,-0.313073 z m 20.869978,1.926607 c 0.523927,0.199608 0.560422,0.02385 0,0 z M 33.446284,40.438 c -0.187599,0.05021 -0.370231,0.116447 -0.5539,0.180619 0.0399,0.0051 0.0819,0.01318 0.115597,0.0096 0.146044,-0.06393 0.592306,-0.231497 0.438303,-0.190253 z m -3.11147,0.426262 c 0.007,0.0014 0.05303,0.0065 0.118001,0.01208 -0.01538,-0.0037 -0.05599,-0.0092 -0.06502,-0.01208 -0.01789,-9.19e-4 -0.03497,8.86e-4 -0.05298,0 z" />
    </clipPath>
    <clipPath
       clipPathUnits="userSpaceOnUse"
       id="clipPath1333">
      <path
         id="path1335"
         style="fill:#ff0000;fill-opacity:1;fill-rule:nonzero;stroke:none"
         d="M 0.05821258,8.0000763 V 109.65633 c 0.220915,-0.1113 0.439701,-0.22759 0.667969,-0.32227 0.18498201,-0.0767 0.38128602,-0.11749 0.57226602,-0.17773 0.292962,-0.0924 0.585955,-0.18678 0.878906,-0.2793 0.993834,-0.31391 2.011923,-0.62264 3.068359,-0.56055 0.682923,0.15372 1.3883371,0.22907 2.0488291,0.46094 0.213755,0.075 0.419688,0.23513 0.517578,0.43945 0.100596,0.20997 0.204728,0.4122 0.300781,0.61133 0.753978,-0.0104 1.509975,-0.006 2.2441413,0.12305 0.142814,0.0251 0.33602,-0.0199 0.464843,0.0273 2.058233,-0.25842 3.231575,-0.39599 5.689454,-0.71094 -0.27059,-0.43276 -0.604489,-0.94094 -1.105469,-1.58594 0.709153,-0.72782 1.231874,-1.7025 2.126953,-2.18359 0.77836,-0.41836 1.743304,-0.31014 2.625,-0.36914 2.268094,-0.15175 4.541317,-0.24925 6.814453,-0.26172 2.874728,-0.0159 16.363198,0.3865 18.683594,0.49414 0.853054,0.0396 1.699462,0.17703 2.548828,0.26563 1.367815,0.36648 2.765957,0.63467 4.103515,1.09961 0.171893,0.0597 0.24248,0.27591 0.322266,0.43945 0.09015,0.18479 0.180573,0.37426 0.251953,0.56836 0.16645,0.0637 0.2178,0.0788 0.38867,0.14453 0.0233,0.002 0.0471,-0.005 0.0703,0.002 2.65987,0.78697 3.00444,0.60764 3.20117,1.45117 0.37769,0.2327 0.73148,0.50065 1.00976,0.85547 0.87567,1.11651 0.89226,2.36466 0.71485,3.69141 -0.0809,0.60525 -0.30684,1.18269 -0.46875,1.77148 -0.11584,0.42122 -0.23793,0.84151 -0.35743,1.26172 0.12787,0.14836 0.24546,0.26099 0.37696,0.42578 0.10937,0.13705 -0.24448,0.25162 -0.38281,0.35938 -0.10004,0.0779 -0.16671,0.12044 -0.25196,0.18359 0.0105,0.0319 -0.005,0.0585 -0.0391,0.082 -0.008,0.0273 -0.0157,0.0547 -0.0234,0.082 -0.31407,0.93522 -0.46697,1.53695 -0.70508,1.96289 -0.003,0.0194 -0.0117,0.12589 -0.008,0.0859 0.002,-0.024 -0.002,-0.0483 0,-0.0723 -0.3258,0.57264 -0.85744,0.80127 -2.18164,0.94727 -0.0635,0.0287 -0.12806,0.0549 -0.1914,0.084 H 94.163473 V 8.0000763 Z M 56.407822,120.02156 c 0.002,-0.004 0.005,-0.009 0.008,-0.0137 0.01,-0.0569 0.0286,-0.20496 -0.002,-0.38672 0.002,0.13352 0.005,0.26736 -0.006,0.40039 z M 19.939073,106.19539 c -0.139749,-0.0196 -0.218146,0.0404 -0.253906,0.15625 0.05538,0.01 0.105934,0.0104 0.160156,0.0156 2.96e-4,-0.0144 0.0058,-0.0327 0.0059,-0.0469 0.03402,0.0193 0.139396,0.0493 0.101563,0.0586 -0.0279,0.007 -0.07101,-0.008 -0.107422,-0.0117 -0.0046,0.22694 -0.03963,0.48357 -0.0918,0.75391 0.111533,0.46424 0.2999,1.06347 0.486328,1.66797 0.08934,-0.0115 0.161178,-0.022 0.248047,-0.0332 -0.04478,-0.65301 -0.120724,-1.42463 -0.314453,-2.48243 -0.09176,-0.0435 -0.169589,-0.069 -0.234375,-0.0781 z m 30.621094,0.63086 c -0.08029,-0.009 -0.09688,0.0109 -0.002,0.0703 0.05486,0.0343 0.120746,0.0608 0.185547,0.0879 0.03502,0.007 0.07855,0.0155 0.07227,0.0332 0.21419,0.0784 0.460862,0.13025 0.701172,0.18555 -0.313395,-0.19687 -0.783272,-0.35656 -0.957031,-0.37696 z m -30.896485,0.70312 c -0.08694,0.37284 -0.180773,0.75228 -0.271484,1.12891 0.214808,-0.0267 0.364572,0.0141 0.451172,0.18164 0.04469,-0.006 0.08616,-0.0111 0.136719,-0.0176 -0.103476,-0.43156 -0.21696,-0.86092 -0.316407,-1.29297 z m -15.5683594,2.09375 c -0.0174,0.0249 -0.05726,0.10162 -0.08984,0.16211 0.01743,-0.0101 0.03511,-0.0194 0.05273,-0.0293 0.0046,-0.0107 0.01117,-0.0206 0.01563,-0.0312 0.05091,-0.1229 0.05078,-0.14355 0.02148,-0.10156 z M 55.126572,120.5743 c -0.17491,0.0748 -0.35033,0.14943 -0.52344,0.22851 0.0237,0.10224 0.145,0.0315 0.52344,-0.22851 z" />
    </clipPath>
  </defs>
  <metadata
     id="metadata5">
    <rdf:RDF>
      <cc:Work
         rdf:about="">
        <dc:format>image/svg+xml</dc:format>
        <dc:type
           rdf:resource="http://purl.org/dc/dcmitype/StillImage" />
        <dc:title></dc:title>
      </cc:Work>
    </rdf:RDF>
  </metadata>
  <g
     id="layer1"
     transform="translate(-113.72357,-62.652185)">
    <g
       id="layer1-3"
       transform="translate(22.325949,-58.609026)">
      <path
         d="m 96.762037,131.98929 c -2.172758,0 -3.940704,1.76768 -3.940704,3.94044 0,2.07645 3.55891,8.35951 3.710516,8.62594 0.04736,0.0825 0.135203,0.13362 0.230188,0.13362 0.09499,0 0.182827,-0.0511 0.229923,-0.13388 0.151606,-0.26644 3.71052,-6.5495 3.71052,-8.62595 2.6e-4,-2.17249 -1.767685,-3.94017 -3.940443,-3.94017 z m 0,6.49472 c -1.408377,0 -2.554287,-1.14591 -2.554287,-2.55428 0,-1.40838 1.14591,-2.55455 2.554287,-2.55455 1.408377,0 2.554287,1.14591 2.554287,2.55428 0,1.40838 -1.14591,2.55455 -2.554287,2.55455 z"
         id="path833"
         style="stroke-width:0.264583" />
      <path
         style="fill:url(#linearGradient852);fill-opacity:1;stroke:none;stroke-width:0.0928317;filter:url(#filter1166)"
         d="m 96.621096,144.66066 c 0.0147,-0.442 0.829276,-2.33177 1.872129,-3.02036 0.731943,-0.48329 1.450143,-0.26795 1.450143,-0.26795 0.414772,0.026 0.652132,0.8538 0.437152,1.18841 -0.33348,0.51901 -2.068245,1.4158 -3.326055,2.03942 -0.378799,0.18781 -0.437877,0.19605 -0.433382,0.0604 z"
         id="path863"
         transform="matrix(1.1825492,0,0,1.2044826,-17.49691,-29.740623)" />
      <path
         style="fill:#000000;fill-opacity:1;stroke:#000000;stroke-width:0.35086"
         d=""
         id="path865"
         transform="scale(0.26458333)" />
    </g>
    <g
       style="clip-rule:evenodd;fill-rule:evenodd;image-rendering:optimizeQuality;shape-rendering:geometricPrecision;text-rendering:geometricPrecision"
       id="g979"
       transform="matrix(0.21458,0,0,0.21458,113.74336,62.651989)">
      <g
         id="g951"
         clip-path="url(#clipPath1278)">
        <g
           id="g943">
          <path
             class="fil0"
             d="m 19.0493,12.6567 h 11.9013 0.385728 v 0.385728 23.9151 0.385728 H 30.9506 19.0493 18.663572 V 36.957528 13.042428 12.6567 Z m 11.5156,0.771457 H 19.435 v 23.1437 h 11.1299 z"
             id="path927" />
          <path
             class="fil0"
             d="m 21.3493,16.4622 h 2.19043 0.385728 v 0.385728 2.9497 0.385728 H 23.53973 21.3493 20.963572 v -0.385728 -2.9497 -0.385728 z m 1.8047,0.771457 h -1.41898 v 2.17824 H 23.154 Z"
             id="path929" />
          <path
             class="fil0"
             d="m 21.3493,23.1482 h 2.19043 0.385728 v 0.385728 2.94972 0.385728 H 23.53973 21.3493 20.963572 V 26.483648 23.533928 23.1482 Z m 1.8047,0.771457 h -1.41898 v 2.17826 H 23.154 Z"
             id="path933" />
          <path
             class="fil0"
             d="m 26.4603,23.1482 h 2.19043 0.385728 v 0.385728 2.94972 0.385728 H 28.65073 26.4603 26.074572 V 26.483648 23.533928 23.1482 Z m 1.8047,0.771457 h -1.41898 v 2.17826 H 28.265 Z"
             id="path935" />
          <path
             class="fil0"
             d="m 21.3493,29.8342 h 2.19043 0.385728 v 0.385728 2.9497 0.385728 H 23.53973 21.3493 20.963572 v -0.385728 -2.9497 -0.385728 z m 1.8047,0.771457 h -1.41898 v 2.17824 H 23.154 Z"
             id="path937" />
          <path
             class="fil0"
             d="m 26.4603,29.8342 h 2.19043 0.385728 v 0.385728 2.9497 0.385728 H 28.65073 26.4603 26.074572 v -0.385728 -2.9497 -0.385728 z m 1.8047,0.771457 h -1.41898 v 2.17824 H 28.265 Z"
             id="path939" />
          <polygon
             class="fil0"
             points="34.3123,36.5718 34.3123,37.3432 15.6876,37.3432 15.6876,36.5718 "
             id="polygon941" />
        </g>
        <g
           id="g949">
          <rect
             class="fil1"
             width="50"
             height="50"
             id="rect945"
             x="0"
             y="0" />
          <path
             class="fil0"
             d="m 25.3857,0.226008 10.4391,6.027 -7.6e-4,0.00131 10.4369,6.02567 0.388744,0.224449 v 0.441539 12.054 12.054 0.441539 l -0.388744,0.224449 -10.4369,6.02567 7.6e-4,0.0013 -10.4391,6.027 -0.385728,0.222685 -0.385728,-0.222685 -10.4391,-6.027 7.6e-4,-0.0013 -10.4369002,-6.02567 -0.388744,-0.224449 v -0.441539 -12.054 -12.054 -0.441539 l 0.388744,-0.224449 10.4369002,-6.02567 -7.6e-4,-0.00131 10.4391,-6.027 0.385728,-0.222685 z m 9.66759,7.35898 -10.0533,-5.8043 -10.0533,5.8043 h -0.003 l -10.0503997,5.80255 v 11.6125 11.6125 l 10.0503997,5.80255 h 0.003 l 10.0533,5.8043 10.0533,-5.8043 h 0.003 l 10.0504,-5.80255 v -11.6125 -11.6125 l -10.0504,-5.80255 z"
             id="path947" />
        </g>
      </g>
    </g>
    <g
       id="g1299"
       transform="matrix(0.0574928,0,0,0.0574928,116.14806,64.976593)"
       clip-path="url(#clipPath1333)">
      <path
         fill-rule="evenodd"
         d="m 83.06492,53.91883 c 1.0139,0 1.8367,0.82102 1.8367,1.83673 v 34.89796 c 0,1.01572 -0.8228,1.83673 -1.8367,1.83673 h -22.0408 c -1.0157,0 -1.8367,-0.82101 -1.8367,-1.83673 V 66.77597 h -14.6939 v 23.87755 c 0,1.01572 -0.8229,1.83673 -1.8368,1.83673 h -22.0408 c -1.0157,0 -1.8367,-0.82101 -1.8367,-1.83673 V 53.91883 c 0,-1.01572 0.821,-1.83674 1.8367,-1.83674 1.0139,0 1.8368,0.82102 1.8368,1.83674 v 34.89796 h 18.3673 V 64.93923 c 0,-1.01571 0.821,-1.83673 1.8367,-1.83673 h 18.3674 c 1.0139,0 1.8367,0.82102 1.8367,1.83673 v 23.87756 h 18.3674 V 55.75556 c 0,-1.01571 0.821,-1.83673 1.8367,-1.83673 z m 12.3192,-3.13531 c 0.7181,0.71816 0.7181,1.87898 0,2.59714 -0.3582,0.35817 -0.8284,0.53817 -1.2986,0.53817 -0.4702,0 -0.9404,-0.18 -1.2986,-0.53817 L 51.84062,12.43434 10.89432,53.38066 c -0.7182,0.71817 -1.8790007,0.71817 -2.5972007,0 -0.7181,-0.71816 -0.7181,-1.87898 0,-2.59714 L 50.54202,8.53862 c 0.7182,-0.71816 1.879,-0.71816 2.5972,0 z M 66.53432,15.3474 c -1.0157,0 -1.8367,-0.82102 -1.8367,-1.83674 0,-1.01571 0.821,-1.83673 1.8367,-1.83673 h 12.8571 c 1.0139,0 1.8368,0.82102 1.8368,1.83673 v 12.85715 c 0,1.01571 -0.8229,1.83673 -1.8368,1.83673 -1.0157,0 -1.8367,-0.82102 -1.8367,-1.83673 V 15.3474 Z"
         id="path1282" />
      <path
         id="text1284"
         transform="translate(-47.324599,33.796952)"
         d="m 49.236328,77.5625 c -0.501302,0 -0.905273,0.16569 -1.21289,0.496094 -0.307618,0.328776 -0.462891,0.791015 -0.462891,1.386718 0,0.563152 0.152995,1.006511 0.458984,1.332032 0.30599,0.323893 0.696615,0.486328 1.171875,0.486328 0.384115,0 0.702149,-0.0944 0.951172,-0.283203 0.250651,-0.19043 0.429688,-0.480469 0.53711,-0.871094 l -0.701172,-0.222656 c -0.06022,0.262044 -0.160482,0.454101 -0.298828,0.576172 -0.138347,0.12207 -0.302084,0.183593 -0.494141,0.183593 -0.260417,0 -0.472005,-0.097 -0.634766,-0.289062 -0.16276,-0.192057 -0.24414,-0.514323 -0.24414,-0.966797 0,-0.426432 0.0817,-0.733398 0.246093,-0.923828 0.166016,-0.19043 0.381185,-0.287109 0.646485,-0.287109 0.192057,0 0.354817,0.05469 0.488281,0.162109 0.135091,0.107422 0.223307,0.253906 0.265625,0.439453 l 0.716797,-0.171875 C 50.588542,78.322917 50.465495,78.104167 50.302734,77.951172 50.029297,77.692383 49.674154,77.5625 49.236328,77.5625 Z m 2.029297,1.046875 v 0.65625 c 0.0539,-0.218791 0.108146,-0.437473 0.162109,-0.65625 z" />
      <path
         id="text1286"
         transform="translate(-47.324599,33.796952)"
         d="m 48.5625,82.5625 c -0.19043,0 -0.349284,0.03516 -0.474609,0.103516 -0.123698,0.06673 -0.208659,0.152343 -0.25586,0.259765 -0.04557,0.107422 -0.06836,0.270183 -0.06836,0.488281 v 0.195313 h -0.38086 v 0.541016 h 0.38086 v 2.052734 h 0.685547 v -2.052734 h 0.513672 v -0.541016 h -0.513672 v -0.181641 c 0,-0.131836 0.02213,-0.222005 0.06445,-0.267578 0.04395,-0.0472 0.11556,-0.07031 0.214844,-0.07031 0.100911,0 0.205403,0.01302 0.314453,0.03906 l 0.09375,-0.478515 C 48.949544,82.591797 48.757812,82.5625 48.5625,82.5625 Z m 1.984375,0.988281 c -0.110677,0 -0.208984,0.02865 -0.296875,0.08398 -0.08626,0.05534 -0.183919,0.169596 -0.292969,0.34375 V 83.60937 h -0.638672 v 2.59375 h 0.6875 v -0.800781 c 0,-0.441081 0.01725,-0.730795 0.05469,-0.869141 0.03906,-0.138346 0.09342,-0.233073 0.160156,-0.285156 0.06673,-0.05371 0.148112,-0.08203 0.244141,-0.08203 0.09928,0 0.206705,0.03841 0.322265,0.113281 l 0.13086,-0.373047 c -0.02985,-0.104982 -0.06217,-0.206546 -0.09961,-0.304688 -0.08857,-0.03028 -0.178915,-0.05078 -0.271484,-0.05078 z m 0.601563,1.205078 c -0.0032,0.03797 -0.01367,0.0749 -0.01367,0.113282 0,0.297851 0.05762,0.551432 0.169922,0.759765 0.05889,0.108384 0.133626,0.202116 0.220703,0.283203 0.01144,-0.09436 0.02309,-0.188695 0.0332,-0.283203 C 51.353,85.400207 51.240532,85.086727 51.148438,84.755859 Z" />
    </g>
  </g>
</svg>
