<?xml version="1.0" encoding="UTF-8" standalone="no"?>
<svg
   xmlns:dc="http://purl.org/dc/elements/1.1/"
   xmlns:cc="http://creativecommons.org/ns#"
   xmlns:rdf="http://www.w3.org/1999/02/22-rdf-syntax-ns#"
   xmlns:svg="http://www.w3.org/2000/svg"
   xmlns="http://www.w3.org/2000/svg"
   width="29.786999"
   height="48"
   viewBox="0 0 7.8811438 12.7"
   version="1.1"
   id="svg8">
  <defs
     id="defs2" />
  <metadata
     id="metadata5">
    <rdf:RDF>
      <cc:Work
         rdf:about="">
        <dc:format>image/svg+xml</dc:format>
        <dc:type
           rdf:resource="http://purl.org/dc/dcmitype/StillImage" />
        <dc:title></dc:title>
      </cc:Work>
    </rdf:RDF>
  </metadata>
  <g
     id="layer1"
     transform="translate(-76.312811,-34.280299)">
    <g
       id="g853"
       transform="matrix(0.26458333,0,0,0.26458333,73.903515,34.280299)">
      <g
         id="g835">
        <path
           d="M 24,0 C 15.788,0 9.106,6.681 9.106,14.893 9.106,22.741 22.557,46.488 23.13,47.495 23.309,47.807 23.641,48 24,48 24.359,48 24.691,47.807 24.869,47.494 25.442,46.487 38.893,22.74 38.893,14.892 38.894,6.681 32.212,0 24,0 Z m 0,24.547 c -5.323,0 -9.654,-4.331 -9.654,-9.654 0,-5.323 4.331,-9.655 9.654,-9.655 5.323,0 9.654,4.331 9.654,9.654 0,5.323 -4.331,9.655 -9.654,9.655 z"
           id="path833" />
      </g>
    </g>
  </g>
</svg>
