<?xml version="1.0" encoding="UTF-8" standalone="no"?>
<svg
   xmlns:dc="http://purl.org/dc/elements/1.1/"
   xmlns:cc="http://creativecommons.org/ns#"
   xmlns:rdf="http://www.w3.org/1999/02/22-rdf-syntax-ns#"
   xmlns:svg="http://www.w3.org/2000/svg"
   xmlns="http://www.w3.org/2000/svg"
   xmlns:xlink="http://www.w3.org/1999/xlink"
   width="10.049845mm"
   height="24.228939mm"
   viewBox="0 0 10.049845 24.228939"
   version="1.1"
   id="svg8">
  <defs
     id="defs2">
    <linearGradient
       id="linearGradient850">
      <stop
         style="stop-color:#000000;stop-opacity:1;"
         offset="0"
         id="stop846" />
      <stop
         style="stop-color:#000000;stop-opacity:0;"
         offset="1"
         id="stop848" />
    </linearGradient>
    <linearGradient
       xlink:href="#linearGradient850"
       id="linearGradient852"
       x1="96.620857"
       y1="143.03879"
       x2="100.46131"
       y2="143.03879"
       gradientUnits="userSpaceOnUse" />
    <filter
       style="color-interpolation-filters:sRGB"
       id="filter1166"
       x="-0.18997136"
       width="1.3799427"
       y="-0.21279655"
       height="1.4255931">
      <feGaussianBlur
         stdDeviation="0.30399"
         id="feGaussianBlur1168" />
    </filter>
    <style
       type="text/css"
       id="style923">
   
    .fil1 {fill:none}
    .fil0 {fill:black;fill-rule:nonzero}
   
  </style>
    <linearGradient
       xlink:href="#linearGradient850"
       id="linearGradient852-7"
       x1="96.620857"
       y1="143.03879"
       x2="100.46131"
       y2="143.03879"
       gradientUnits="userSpaceOnUse" />
    <filter
       style="color-interpolation-filters:sRGB"
       id="filter1166-3"
       x="-0.18997136"
       width="1.3799427"
       y="-0.21279655"
       height="1.4255931">
      <feGaussianBlur
         stdDeviation="0.30399"
         id="feGaussianBlur1168-2" />
    </filter>
  </defs>
  <metadata
     id="metadata5">
    <rdf:RDF>
      <cc:Work
         rdf:about="">
        <dc:format>image/svg+xml</dc:format>
        <dc:type
           rdf:resource="http://purl.org/dc/dcmitype/StillImage" />
        <dc:title></dc:title>
      </cc:Work>
    </rdf:RDF>
  </metadata>
  <g
     id="layer1"
     transform="translate(-114.06311,-62.652702)">
    <g
       style="clip-rule:evenodd;fill-rule:evenodd;image-rendering:optimizeQuality;shape-rendering:geometricPrecision;text-rendering:geometricPrecision"
       id="g979"
       transform="matrix(0.21458,0,0,0.21458,113.34421,62.651989)">
      <g
         id="g951">
        <g
           id="g943">
          <path
             class="fil0"
             d="m 19.0493,12.6567 h 11.9013 0.385728 v 0.385728 23.9151 0.385728 H 30.9506 19.0493 18.663572 V 36.957528 13.042428 12.6567 Z m 11.5156,0.771457 H 19.435 v 23.1437 h 11.1299 z"
             id="path927" />
          <path
             class="fil0"
             d="m 21.3493,16.4622 h 2.19043 0.385728 v 0.385728 2.9497 0.385728 H 23.53973 21.3493 20.963572 v -0.385728 -2.9497 -0.385728 z m 1.8047,0.771457 h -1.41898 v 2.17824 H 23.154 Z"
             id="path929" />
          <path
             class="fil0"
             d="m 26.4603,16.4622 h 2.19043 0.385728 v 0.385728 2.9497 0.385728 H 28.65073 26.4603 26.074572 v -0.385728 -2.9497 -0.385728 z m 1.8047,0.771457 h -1.41898 v 2.17824 H 28.265 Z"
             id="path931" />
          <path
             class="fil0"
             d="m 21.3493,23.1482 h 2.19043 0.385728 v 0.385728 2.94972 0.385728 H 23.53973 21.3493 20.963572 V 26.483648 23.533928 23.1482 Z m 1.8047,0.771457 h -1.41898 v 2.17826 H 23.154 Z"
             id="path933" />
          <path
             class="fil0"
             d="m 26.4603,23.1482 h 2.19043 0.385728 v 0.385728 2.94972 0.385728 H 28.65073 26.4603 26.074572 V 26.483648 23.533928 23.1482 Z m 1.8047,0.771457 h -1.41898 v 2.17826 H 28.265 Z"
             id="path935" />
          <path
             class="fil0"
             d="m 21.3493,29.8342 h 2.19043 0.385728 v 0.385728 2.9497 0.385728 H 23.53973 21.3493 20.963572 v -0.385728 -2.9497 -0.385728 z m 1.8047,0.771457 h -1.41898 v 2.17824 H 23.154 Z"
             id="path937" />
          <path
             class="fil0"
             d="m 26.4603,29.8342 h 2.19043 0.385728 v 0.385728 2.9497 0.385728 H 28.65073 26.4603 26.074572 v -0.385728 -2.9497 -0.385728 z m 1.8047,0.771457 h -1.41898 v 2.17824 H 28.265 Z"
             id="path939" />
          <polygon
             class="fil0"
             points="34.3123,37.3432 15.6876,37.3432 15.6876,36.5718 34.3123,36.5718 "
             id="polygon941" />
        </g>
        <g
           id="g949">
          <rect
             class="fil1"
             width="50"
             height="50"
             id="rect945"
             x="0"
             y="0" />
          <path
             class="fil0"
             d="m 25.3857,0.226008 10.4391,6.027 -7.6e-4,0.00131 10.4369,6.02567 0.388744,0.224449 v 0.441539 12.054 12.054 0.441539 l -0.388744,0.224449 -10.4369,6.02567 7.6e-4,0.0013 -10.4391,6.027 -0.385728,0.222685 -0.385728,-0.222685 -10.4391,-6.027 7.6e-4,-0.0013 -10.4369002,-6.02567 -0.388744,-0.224449 v -0.441539 -12.054 -12.054 -0.441539 l 0.388744,-0.224449 10.4369002,-6.02567 -7.6e-4,-0.00131 10.4391,-6.027 0.385728,-0.222685 z m 9.66759,7.35898 -10.0533,-5.8043 -10.0533,5.8043 h -0.003 l -10.0503997,5.80255 v 11.6125 11.6125 l 10.0503997,5.80255 h 0.003 l 10.0533,5.8043 10.0533,-5.8043 h 0.003 l 10.0504,-5.80255 v -11.6125 -11.6125 l -10.0504,-5.80255 z"
             id="path947" />
        </g>
      </g>
    </g>
  </g>
  <g
     id="layer1-3-8"
     transform="translate(-92.355184,-121.48799)">
    <path
       style="fill:url(#linearGradient852-7);fill-opacity:1;stroke:none;stroke-width:0.0928317;filter:url(#filter1166-3)"
       d="m 96.621096,144.66066 c 0.0147,-0.442 0.829276,-2.33177 1.872129,-3.02036 0.731943,-0.48329 1.450143,-0.26795 1.450143,-0.26795 0.414772,0.026 0.652132,0.8538 0.437152,1.18841 -0.33348,0.51901 -2.068245,1.4158 -3.326055,2.03942 -0.378799,0.18781 -0.437877,0.19605 -0.433382,0.0604 z"
       id="path863-2"
       transform="matrix(1.1825492,0,0,1.2044826,-17.373989,-29.187479)" />
    <path
       style="fill:#000000;fill-opacity:1;stroke:#000000;stroke-width:0.35086"
       d=""
       id="path865-5"
       transform="scale(0.26458333)" />
    <path
       d="m 97.000778,132.21555 c -2.17276,0 -3.94071,1.76768 -3.94071,3.94044 0,2.07645 3.55891,8.35951 3.71052,8.62595 0.0474,0.0825 0.1352,0.13361 0.23019,0.13361 0.095,0 0.18282,-0.0511 0.22992,-0.13388 0.1516,-0.26643 3.710522,-6.54949 3.710522,-8.62594 2.6e-4,-2.1725 -1.767692,-3.94018 -3.940442,-3.94018 z m 0,6.49473 c -1.40838,0 -2.55429,-1.14591 -2.55429,-2.55429 0,-1.40838 1.14591,-2.55455 2.55429,-2.55455 1.40837,0 2.55428,1.14591 2.55428,2.55429 0,1.40837 -1.14591,2.55455 -2.55428,2.55455 z"
       id="path833-5"
       style="fill:#fbbb8b;fill-opacity:1;stroke:#000000;stroke-width:0.264583;stroke-opacity:1" />
  </g>
</svg>
