<?xml version="1.0" encoding="UTF-8" standalone="no"?>
<svg
   xmlns:dc="http://purl.org/dc/elements/1.1/"
   xmlns:cc="http://creativecommons.org/ns#"
   xmlns:rdf="http://www.w3.org/1999/02/22-rdf-syntax-ns#"
   xmlns:svg="http://www.w3.org/2000/svg"
   xmlns="http://www.w3.org/2000/svg"
   version="1.1"
   id="svg2"
   xml:space="preserve"
   width="2560"
   height="1440"
   viewBox="0 0 2560 1440"><metadata
     id="metadata8"><rdf:RDF><cc:Work
         rdf:about=""><dc:format>image/svg+xml</dc:format><dc:type
           rdf:resource="http://purl.org/dc/dcmitype/StillImage" /><dc:title></dc:title></cc:Work></rdf:RDF></metadata><defs
     id="defs6"><clipPath
       clipPathUnits="userSpaceOnUse"
       id="clipPath18"><path
         d="M 0,1080 H 1920 V 0 H 0 Z"
         id="path16" /></clipPath></defs><g
     id="g10"
     transform="matrix(1.3333333,0,0,-1.3333333,0,1440)"><g
       id="g12"><g
         id="g14"
         clip-path="url(#clipPath18)"><g
           id="g20"
           transform="translate(994.3728,639.4937)"
           style="stroke-width:0;stroke-miterlimit:4;stroke-dasharray:none;fill:#ffffff;fill-opacity:1"><path
             d="m 0,0 c -15.684,-1.106 -28.821,-2.016 -41.954,-2.974 -2.636,-0.192 -5.378,-0.176 -7.869,-0.926 -12.571,-3.785 -25.923,-6.161 -37.4,-12.108 -16.41,-8.503 -21.591,-24.402 -17.488,-44.484 3.203,-15.677 14.019,-23.062 28.91,-25.973 30.137,-5.89 53.917,6.604 75.801,24.814 z m -79.596,-128.088 c -24.798,5.242 -44.531,15.037 -57.017,35.791 -23.831,39.609 -8.069,91.688 35.63,106.981 25.836,9.041 54.245,10.818 81.542,15.603 5.782,1.013 11.762,0.9 17.387,1.288 4.389,21.602 -3.678,35.209 -23.492,40.98 -26.72,7.782 -52.566,2.312 -78.27,-5.098 -6.829,-1.969 -13.556,-4.288 -22.078,-7.003 v 39.563 c 41.96,11.531 84.052,17.272 126.174,1.521 22.087,-8.259 36.866,-25.506 38.058,-49.215 2.323,-46.231 2.218,-92.585 3.044,-138.889 0.173,-9.72 0.025,-19.447 0.025,-30.407 H 3.653 c -1.411,4.768 -2.96,9.999 -4.747,16.035 -12.12,-7.125 -23.412,-13.762 -36.884,-21.68 0,-7.518 0.122,-15.978 -0.02,-24.434 -0.96,-57.564 0.256,-115.276 -3.598,-172.648 -3.914,-58.246 -43.128,-91.666 -101.737,-92.533 -11.257,-0.167 -22.732,-0.528 -33.761,1.288 -52.036,8.564 -84.39,45.294 -84.935,99.165 -0.891,88.074 -0.102,176.165 -0.091,264.249 0.01,79.481 -0.073,158.963 -0.115,238.445 -0.003,6.519 0,13.039 0,21.202 H 554.763 V -193.303 H 420.136 c 7.848,-32.676 26.015,-53.54 50.754,-70.128 25.201,-16.898 53.412,-21.706 84.342,-20.048 v -123.748 c -6.765,-0.412 -13.146,-1.138 -19.526,-1.14 -140.726,-0.054 -281.451,0.03 -422.176,-0.067 -26.416,-0.018 -50.934,6.524 -75.148,18.833 v 43.014 c 7.911,-4.096 13.94,-7.343 20.076,-10.373 27.287,-13.473 55.279,-22.553 86.205,-14.016 17.137,4.731 23.903,12.019 24.316,26.824 0.428,15.354 -4.562,22.096 -23.14,27.291 -22.298,6.235 -45.311,10.108 -67.303,17.198 -22.519,7.259 -36.465,23.33 -39.213,47.776 -2.671,23.763 5.699,42.873 24.328,57.458 5.159,4.039 10.988,7.663 17.078,10.009 40.904,15.761 80.355,9.644 119.943,-7.348 v -41.64 c -7.905,3.697 -14.071,6.728 -20.354,9.494 -24.639,10.85 -49.68,18.655 -76.998,10.625 -13.075,-3.843 -23.486,-10.653 -24.382,-25.259 -0.914,-14.9 8.893,-23.147 21.895,-27.046 13.287,-3.985 27.006,-6.543 40.545,-9.687 7.098,-1.649 14.345,-2.786 21.302,-4.888 41.925,-12.671 57.739,-46.533 40.883,-87.113 -1.216,-2.926 -2.381,-5.874 -4.077,-10.068 h 325.939 v 85.273 c -42.507,9.634 -79.437,28.577 -101.727,68.448 -9.909,17.722 -11.326,33.063 -6.021,59.38 h 107.466 v 346.465 h -745.5 c -0.564,-7.035 -1.614,-14.041 -1.615,-21.047 -0.003,-150.346 -0.001,-300.692 0.386,-451.037 0.037,-14.43 0.636,-29.392 4.408,-43.172 8.84,-32.29 35.665,-48.144 72.401,-45.173 35.936,2.906 57.601,22.025 61.972,55.72 1.869,14.404 2.934,29.002 3.067,43.524 0.393,43.049 0.141,86.104 0.142,129.157 0,7.152 0,14.305 0,21.724"
             style="fill:#ffffff;fill-opacity:1;fill-rule:nonzero;stroke:none;stroke-width:0;stroke-miterlimit:4;stroke-dasharray:none"
             id="path22" /></g><g
           id="g24"
           transform="translate(463.8493,353.531)"
           style="stroke-width:0;stroke-miterlimit:4;stroke-dasharray:none;fill:#ffffff;fill-opacity:1"><path
             d="M 0,0 H 104.586 V 120.233 C 68.565,78.822 35.351,40.639 0,0 m 145.955,-1.058 h 43.021 c 0.488,-11.123 0.906,-20.632 1.428,-32.505 -14.454,-0.823 -27.369,-1.56 -43.185,-2.461 v -81.201 h -40.467 v 81.577 H -29.815 c -3.323,24.441 -5.488,44.653 12.452,64.323 42.847,46.979 83.647,95.816 125.502,144.167 h 37.816 z"
             style="fill:#ffffff;fill-opacity:1;fill-rule:nonzero;stroke:none;stroke-width:0;stroke-miterlimit:4;stroke-dasharray:none"
             id="path26" /></g><g
           id="g28"
           transform="translate(485.0695,812.1819)"
           style="stroke-width:0;stroke-miterlimit:4;stroke-dasharray:none;fill:#ffffff;fill-opacity:1"><path
             d="M 0,0 H 184.867 V -35.652 H 43.055 v -78.053 h 121.23 v -37.153 H 41.621 V -289.397 H 0 Z"
             style="fill:#ffffff;fill-opacity:1;fill-rule:nonzero;stroke:none;stroke-width:0;stroke-miterlimit:4;stroke-dasharray:none"
             id="path30" /></g><g
           id="g32"
           transform="translate(1454.2998,733.8052)"
           style="stroke-width:0;stroke-miterlimit:4;stroke-dasharray:none;fill:#ffffff;fill-opacity:1"><path
             d="m 0,0 v -41.474 c -8.04,3.677 -14.172,6.565 -20.37,9.302 -24.602,10.861 -49.582,18.74 -76.914,10.858 -13.072,-3.77 -23.152,-10.399 -24.835,-24.93 -1.424,-12.294 7.182,-23.407 23.37,-28.055 17.78,-5.104 36.17,-8.047 54.117,-12.624 35.846,-9.144 52.668,-27.406 53.485,-57.17 0.855,-31.176 -16.767,-55.99 -49.58,-66.18 -41.845,-12.994 -82.219,-7.102 -121.924,12.509 v 43.117 c 8.003,-4.16 14.062,-7.443 20.237,-10.494 27.269,-13.476 55.262,-22.455 86.147,-13.94 17.072,4.706 23.535,12.073 24.345,26.832 0.916,16.692 -9.16,23.765 -23.191,27.372 -22.416,5.761 -45.304,9.993 -67.281,17.072 -22.49,7.243 -36.484,23.253 -39.248,47.687 -2.781,24.587 6.146,44.105 25.757,58.661 5.763,4.278 12.415,7.824 19.188,10.211 C -76.948,22.765 -38.756,16.607 0,0"
             style="fill:#ffffff;fill-opacity:1;fill-rule:nonzero;stroke:none;stroke-width:0;stroke-miterlimit:4;stroke-dasharray:none"
             id="path34" /></g><g
           id="g36"
           transform="translate(1126.8074,706.6352)"
           style="stroke-width:0;stroke-miterlimit:4;stroke-dasharray:none;fill:#ffffff;fill-opacity:1"><path
             d="m 0,0 c -9.113,1.141 -15.489,1.94 -22.941,2.873 v 30.723 c 6.926,1.028 13.283,1.971 22.04,3.27 V 96.937 H 39.48 V 35.698 h 74.343 V 1.553 H 41.896 c -0.593,-8.943 -1.451,-15.975 -1.458,-23.008 -0.028,-31.764 -0.376,-63.543 0.47,-95.289 0.838,-31.423 17.499,-43.653 48.67,-37.002 7.07,1.508 14.041,3.48 23.691,5.898 v -38.218 c -20.976,-0.82 -41.466,-4.083 -61.332,-1.841 -32.501,3.668 -50.562,28.346 -51.619,67.259 -0.88,32.405 -0.271,64.85 -0.317,97.277 C -0.009,-16.162 0,-8.954 0,0"
             style="fill:#ffffff;fill-opacity:1;fill-rule:nonzero;stroke:none;stroke-width:0;stroke-miterlimit:4;stroke-dasharray:none"
             id="path38" /></g><g
           id="g40"
           transform="translate(1424.3488,460.686)"
           style="stroke-width:0;stroke-miterlimit:4;stroke-dasharray:none"><path
             d="m 0,0 h 110.049 v 375.911 c -9.073,0.586 -17.732,1.63 -26.392,1.633 -240.349,0.089 -480.698,0.142 -721.047,-0.181 -9.962,-0.014 -19.919,-3.723 -29.878,-5.71"
             style="fill:none;stroke:#000000;stroke-width:0;stroke-linecap:round;stroke-linejoin:round;stroke-miterlimit:4;stroke-dasharray:none;stroke-opacity:1"
             id="path42" /></g><g
           id="g44"
           transform="translate(755.0887,313.6148)"
           style="stroke-width:0;stroke-miterlimit:4;stroke-dasharray:none"><path
             d="M 0,0 C 0.664,-3.312 1.328,-6.625 1.992,-9.937"
             style="fill:none;stroke:#000000;stroke-width:0;stroke-linecap:round;stroke-linejoin:round;stroke-miterlimit:4;stroke-dasharray:none;stroke-opacity:1"
             id="path46" /></g><g
           id="g48"
           transform="translate(784.9664,259.9538)"
           style="stroke-width:0;stroke-miterlimit:4;stroke-dasharray:none"><path
             d="m 0,0 c 41.532,-23.804 89.587,-20.569 121.801,5.597 15.442,12.542 19.65,29.325 25.596,46.077"
             style="fill:none;stroke:#000000;stroke-width:0;stroke-linecap:round;stroke-linejoin:round;stroke-miterlimit:4;stroke-dasharray:none;stroke-opacity:1"
             id="path50" /></g><g
           id="g52"
           transform="translate(922.4037,532.2341)"
           style="stroke-width:0;stroke-miterlimit:4;stroke-dasharray:none"><path
             d="M 0,0 C -3.32,0.662 -6.64,1.325 -9.959,1.987"
             style="fill:none;stroke:#000000;stroke-width:0;stroke-linecap:round;stroke-linejoin:round;stroke-miterlimit:4;stroke-dasharray:none;stroke-opacity:1"
             id="path54" /></g><g
           id="g56"
           transform="translate(870.6158,603.7822)"
           style="stroke-width:0;stroke-miterlimit:4;stroke-dasharray:none"><path
             d="m 0,0 c 5.562,29.716 29.159,38.898 53.871,43.203 28.155,4.904 57.008,5.821 85.558,8.471"
             style="fill:none;stroke:#000000;stroke-width:0;stroke-linecap:round;stroke-linejoin:round;stroke-miterlimit:4;stroke-dasharray:none;stroke-opacity:1"
             id="path58" /></g><g
           id="g60"
           transform="translate(1535.8921,341.4391)"
           style="stroke-width:0;stroke-miterlimit:4;stroke-dasharray:none"><path
             d="m 0,0 v -93.849 c -11.234,-0.582 -20.556,-1.476 -29.878,-1.485 -100.92,-0.101 -201.84,-0.16 -302.76,0.109 -8.635,0.023 -17.226,3.183 -25.903,3.635 -12.581,0.654 -25.495,1.841 -37.783,-0.16 -31.384,-5.112 -60.836,0.588 -90.323,13.32 -4.067,8.179 -8.687,17.468 -13.306,26.756"
             style="fill:none;stroke:#000000;stroke-width:0;stroke-linecap:round;stroke-linejoin:round;stroke-miterlimit:4;stroke-dasharray:none;stroke-opacity:1"
             id="path62" /></g><g
           id="g64"
           transform="translate(1450.2427,695.2048)"
           style="stroke-width:0;stroke-miterlimit:4;stroke-dasharray:none"><path
             d="m 0,0 c -4.694,8.587 -9.389,17.175 -14.664,26.824 -27.196,8.448 -55.266,16.423 -84.924,6.95 -23.886,-7.629 -46.079,-27.842 -35.857,-59.611"
             style="fill:none;stroke:#000000;stroke-width:0;stroke-linecap:round;stroke-linejoin:round;stroke-miterlimit:4;stroke-dasharray:none;stroke-opacity:1"
             id="path66" /></g><g
           id="g68"
           transform="translate(1440.2834,571.983)"
           style="stroke-width:0;stroke-miterlimit:4;stroke-dasharray:none"><path
             d="m 0,0 c -7.202,-30.327 -31.592,-36.133 -57.789,-36.881 -24.612,-0.703 -49.434,5.93 -71.777,9.006 -6.6,13.272 -11.219,22.561 -15.839,31.85"
             style="fill:none;stroke:#000000;stroke-width:0;stroke-linecap:round;stroke-linejoin:round;stroke-miterlimit:4;stroke-dasharray:none;stroke-opacity:1"
             id="path70" /></g><g
           id="g72"
           transform="translate(581.7982,496.4601)"
           style="stroke-width:0;stroke-miterlimit:4;stroke-dasharray:none"><path
             d="m 0,0 c -9.295,-4.637 -20.998,-7.107 -27.483,-14.275 -34.059,-37.648 -66.829,-76.458 -99.97,-114.93 -7.168,-8.321 -11.811,-17.227 -1.077,-31.778 H 55.772"
             style="fill:none;stroke:#000000;stroke-width:0;stroke-linecap:round;stroke-linejoin:round;stroke-miterlimit:4;stroke-dasharray:none;stroke-opacity:1"
             id="path74" /></g><g
           id="g76"
           transform="translate(651.5128,794.5772)"
           style="stroke-width:0;stroke-miterlimit:4;stroke-dasharray:none"><path
             d="M 0,0 C -44.484,-0.662 -88.969,-1.325 -133.454,-1.987"
             style="fill:none;stroke:#000000;stroke-width:0;stroke-linecap:round;stroke-linejoin:round;stroke-miterlimit:4;stroke-dasharray:none;stroke-opacity:1"
             id="path78" /></g><g
           id="g80"
           transform="translate(1149.4741,575.9579)"
           style="stroke-width:0;stroke-miterlimit:4;stroke-dasharray:none"><path
             d="M 0,0 C -1.275,-33.891 36.536,-50.702 77.682,-37.761"
             style="fill:none;stroke:#000000;stroke-width:0;stroke-linecap:round;stroke-linejoin:round;stroke-miterlimit:4;stroke-dasharray:none;stroke-opacity:1"
             id="path82" /></g><g
           id="g84"
           transform="translate(1191.3029,409.0123)"
           style="stroke-width:0;stroke-miterlimit:4;stroke-dasharray:none"><path
             d="m 0,0 c -4.694,8.587 -9.389,17.175 -14.663,26.824 -27.197,8.448 -55.267,16.423 -84.925,6.95 -23.886,-7.629 -46.079,-27.842 -35.858,-59.611"
             style="fill:none;stroke:#000000;stroke-width:0;stroke-linecap:round;stroke-linejoin:round;stroke-miterlimit:4;stroke-dasharray:none;stroke-opacity:1"
             id="path86" /></g><g
           id="g88"
           transform="translate(1014.0286,679.3052)"
           style="stroke-width:0;stroke-miterlimit:4;stroke-dasharray:none"><path
             d="m 0,0 c -0.298,29.336 -13.939,46.944 -47.901,50.837 -25.406,2.913 -51.715,-1.514 -77.552,-3.555 -2.901,-0.229 -5.345,-6.208 -8.001,-9.521"
             style="fill:none;stroke:#000000;stroke-width:0;stroke-linecap:round;stroke-linejoin:round;stroke-miterlimit:4;stroke-dasharray:none;stroke-opacity:1"
             id="path90" /></g><g
           id="g92"
           transform="translate(1414.3895,448.7613)"
           style="stroke-width:0;stroke-miterlimit:4;stroke-dasharray:none"><path
             d="m 0,0 c -4.701,-21.576 8.336,-37.377 20.409,-51.249 19.077,-21.919 43.107,-37.753 73.171,-42.395 6.886,-1.063 13.316,-5.066 19.955,-7.716"
             style="fill:none;stroke:#000000;stroke-width:0;stroke-linecap:round;stroke-linejoin:round;stroke-miterlimit:4;stroke-dasharray:none;stroke-opacity:1"
             id="path94" /></g><g
           id="g96"
           transform="translate(631.5944,679.3052)"
           style="stroke-width:0;stroke-miterlimit:4;stroke-dasharray:none"><path
             d="M 0,0 H -121.503"
             style="fill:none;stroke:#000000;stroke-width:0;stroke-linecap:round;stroke-linejoin:round;stroke-miterlimit:4;stroke-dasharray:none;stroke-opacity:1"
             id="path98" /></g><g
           id="g100"
           transform="translate(1227.156,725.0165)"
           style="stroke-width:0;stroke-miterlimit:4;stroke-dasharray:none"><path
             d="M 0,0 H -107.56"
             style="fill:none;stroke:#000000;stroke-width:0;stroke-linecap:round;stroke-linejoin:round;stroke-miterlimit:4;stroke-dasharray:none;stroke-opacity:1"
             id="path102" /></g><g
           id="g104"
           transform="translate(1008.0531,560.0583)"
           style="stroke-width:0;stroke-miterlimit:4;stroke-dasharray:none"><path
             d="M 0,0 -71.706,-33.787"
             style="fill:none;stroke:#000000;stroke-width:0;stroke-linecap:round;stroke-linejoin:round;stroke-miterlimit:4;stroke-dasharray:none;stroke-opacity:1"
             id="path106" /></g></g></g></g></svg>
