<?xml version="1.0" encoding="UTF-8" standalone="no"?>
<svg
   xmlns:dc="http://purl.org/dc/elements/1.1/"
   xmlns:cc="http://creativecommons.org/ns#"
   xmlns:rdf="http://www.w3.org/1999/02/22-rdf-syntax-ns#"
   xmlns:svg="http://www.w3.org/2000/svg"
   xmlns="http://www.w3.org/2000/svg"
   width="8.1457329mm"
   height="12.964583mm"
   viewBox="0 0 8.1457329 12.964583"
   version="1.1"
   id="svg8">
  <defs
     id="defs2" />
  <metadata
     id="metadata5">
    <rdf:RDF>
      <cc:Work
         rdf:about="">
        <dc:format>image/svg+xml</dc:format>
        <dc:type
           rdf:resource="http://purl.org/dc/dcmitype/StillImage" />
        <dc:title></dc:title>
      </cc:Work>
    </rdf:RDF>
  </metadata>
  <g
     id="layer1"
     transform="translate(-133.51047,-153.02366)">
    <path
       d="m 137.58347,153.15595 c -2.17276,0 -3.94071,1.76768 -3.94071,3.94044 0,2.07645 3.55891,8.35951 3.71052,8.62595 0.0474,0.0825 0.1352,0.13361 0.23019,0.13361 0.095,0 0.18282,-0.0511 0.22992,-0.13388 0.1516,-0.26643 3.71052,-6.54949 3.71052,-8.62594 2.6e-4,-2.1725 -1.76769,-3.94018 -3.94044,-3.94018 z m 0,6.49473 c -1.40838,0 -2.55429,-1.14591 -2.55429,-2.55429 0,-1.40838 1.14591,-2.55455 2.55429,-2.55455 1.40837,0 2.55428,1.14591 2.55428,2.55429 0,1.40837 -1.14591,2.55455 -2.55428,2.55455 z"
       id="path833"
       style="fill:#fbbb8b;fill-opacity:1;stroke:#000000;stroke-width:0.264583;stroke-opacity:1" />
  </g>
</svg>
