<?xml version="1.0" encoding="UTF-8" standalone="no"?>
<svg
   xmlns:dc="http://purl.org/dc/elements/1.1/"
   xmlns:cc="http://creativecommons.org/ns#"
   xmlns:rdf="http://www.w3.org/1999/02/22-rdf-syntax-ns#"
   xmlns:svg="http://www.w3.org/2000/svg"
   xmlns="http://www.w3.org/2000/svg"
   xmlns:xlink="http://www.w3.org/1999/xlink"
   width="70.586655mm"
   height="77.503899mm"
   viewBox="0 0 70.586655 77.503899"
   version="1.1"
   id="svg1726">
  <defs
     id="defs1720">
    <clipPath
       clipPathUnits="userSpaceOnUse"
       id="clipPath18">
      <path
         d="M 0,595.276 H 841.89 V 0 H 0 Z"
         id="path16" />
    </clipPath>
    <linearGradient
       xlink:href="#linearGradient850"
       id="linearGradient852"
       x1="96.620857"
       y1="143.03879"
       x2="100.46131"
       y2="143.03879"
       gradientUnits="userSpaceOnUse" />
    <linearGradient
       id="linearGradient850">
      <stop
         style="stop-color:#000000;stop-opacity:1;"
         offset="0"
         id="stop846" />
      <stop
         style="stop-color:#000000;stop-opacity:0;"
         offset="1"
         id="stop848" />
    </linearGradient>
    <filter
       style="color-interpolation-filters:sRGB"
       id="filter1166"
       x="-0.18997136"
       width="1.3799427"
       y="-0.21279655"
       height="1.4255931">
      <feGaussianBlur
         stdDeviation="0.30399"
         id="feGaussianBlur1168" />
    </filter>
    <clipPath
       clipPathUnits="userSpaceOnUse"
       id="clipPath18-1">
      <path
         d="M 0,595.276 H 841.89 V 0 H 0 Z"
         id="path16-4" />
    </clipPath>
    <clipPath
       clipPathUnits="userSpaceOnUse"
       id="clipPath106">
      <path
         d="M 0,595.276 H 841.89 V 0 H 0 Z"
         id="path104" />
    </clipPath>
    <clipPath
       clipPathUnits="userSpaceOnUse"
       id="clipPath154">
      <path
         d="M 0,595.276 H 841.89 V 0 H 0 Z"
         id="path152" />
    </clipPath>
  </defs>
  <metadata
     id="metadata1723">
    <rdf:RDF>
      <cc:Work
         rdf:about="">
        <dc:format>image/svg+xml</dc:format>
        <dc:type
           rdf:resource="http://purl.org/dc/dcmitype/StillImage" />
        <dc:title></dc:title>
      </cc:Work>
    </rdf:RDF>
  </metadata>
  <g
     id="layer1"
     transform="translate(-82.635246,-118.48613)">
    <path
       style="fill:url(#linearGradient852);fill-opacity:1;stroke:none;stroke-width:0.0928317;filter:url(#filter1166)"
       d="m 96.621096,144.66066 c 0.0147,-0.442 0.829276,-2.33177 1.872129,-3.02036 0.731943,-0.48329 1.450143,-0.26795 1.450143,-0.26795 0.414772,0.026 0.652132,0.8538 0.437152,1.18841 -0.33348,0.51901 -2.068245,1.4158 -3.326055,2.03942 -0.378799,0.18781 -0.437877,0.19605 -0.433382,0.0604 z"
       id="path863"
       transform="matrix(9.8862489,0,0,9.6219396,-847.17636,-1203.835)" />
    <g
       id="g100"
       transform="matrix(0.35277777,0,0,-0.35277777,-62.666593,303.02354)"
       style="stroke:#000000;stroke-opacity:1;fill:#fbbb8b;fill-opacity:1">
      <g
         id="g148"
         transform="translate(-165.79896,0.41268268)"
         style="fill:#fbbb8b;fill-opacity:1;stroke:#000000;stroke-opacity:1">
        <g
           id="g150"
           clip-path="url(#clipPath154)"
           style="fill:#fbbb8b;fill-opacity:1;stroke:#000000;stroke-opacity:1">
          <g
             id="g156"
             transform="translate(649.7022,391.7285)"
             style="fill:#fbbb8b;fill-opacity:1;stroke:#000000;stroke-opacity:1">
            <path
               d="m 0,0 c -31.836,0 -57.644,25.808 -57.644,57.644 0,31.835 25.808,57.643 57.644,57.643 31.836,0 57.644,-25.808 57.644,-57.643 C 57.644,25.808 31.836,0 0,0 m 71.524,58.932 c 0,39.502 -32.022,71.525 -71.524,71.525 -39.502,0 -71.524,-32.023 -71.524,-71.525 0,-14.762 4.475,-28.478 12.139,-39.871 h -0.004 l 0.041,-0.057 c 0.062,-0.094 0.129,-0.184 0.192,-0.277 L 0,-66.318 59.12,18.676 c 0.078,0.115 0.16,0.227 0.238,0.342 l 0.03,0.043 h -0.003 c 7.664,11.393 12.139,25.109 12.139,39.871"
               style="fill:#fbbb8b;fill-opacity:1;fill-rule:nonzero;stroke:#000000;stroke-opacity:1"
               id="path158" />
          </g>
          <g
             id="g160"
             transform="translate(649.7022,391.7285)"
             style="fill:#fbbb8b;fill-opacity:1;stroke:#000000;stroke-opacity:1">
            <path
               d="m 0,0 c -31.836,0 -57.644,25.808 -57.644,57.644 0,31.835 25.808,57.643 57.644,57.643 31.836,0 57.644,-25.808 57.644,-57.643 C 57.644,25.808 31.836,0 0,0 Z m 71.524,58.932 c 0,39.502 -32.022,71.525 -71.524,71.525 -39.502,0 -71.524,-32.023 -71.524,-71.525 0,-14.762 4.475,-28.478 12.139,-39.871 h -0.004 l 0.041,-0.057 c 0.062,-0.094 0.129,-0.184 0.192,-0.277 L 0,-66.318 59.12,18.676 c 0.078,0.115 0.16,0.227 0.238,0.342 l 0.03,0.043 h -0.003 c 7.664,11.393 12.139,25.109 12.139,39.871 z"
               style="fill:#fbbb8b;stroke:none;stroke-width:1;stroke-linecap:butt;stroke-linejoin:miter;stroke-miterlimit:10;stroke-dasharray:none;stroke-opacity:1;fill-opacity:1"
               id="path162" />
          </g>
          <g
             id="g164"
             transform="translate(701.243,449.4254)"
             style="fill:#fbbb8b;fill-opacity:1;stroke:#000000;stroke-opacity:1">
            <path
               d="m 0,0 c 0,-28.465 -23.076,-51.541 -51.541,-51.541 -28.465,0 -51.541,23.076 -51.541,51.541 0,28.465 23.076,51.541 51.541,51.541 C -23.076,51.541 0,28.465 0,0 Z"
               style="fill:#fbbb8b;stroke:none;stroke-width:4;stroke-linecap:butt;stroke-linejoin:miter;stroke-miterlimit:10;stroke-dasharray:none;stroke-opacity:1;fill-opacity:1"
               id="path166" />
          </g>
          <g
             id="g168"
             transform="translate(615.1978,432.2687)"
             style="fill:#fbbb8b;fill-opacity:1;stroke:#000000;stroke-opacity:1">
            <path
               d="M 0,0 -0.038,35.954 35.344,54.675"
               style="fill:#fbbb8b;stroke:#000000;stroke-width:4;stroke-linecap:butt;stroke-linejoin:miter;stroke-miterlimit:10;stroke-dasharray:none;stroke-opacity:1;fill-opacity:1"
               id="path170" />
          </g>
          <g
             id="g172"
             transform="translate(683.2349,432.2174)"
             style="fill:#fbbb8b;fill-opacity:1;stroke:#000000;stroke-opacity:1">
            <path
               d="M 0,0 V 35.865 L -34.599,54.727"
               style="fill:#fbbb8b;stroke:#000000;stroke-width:4;stroke-linecap:butt;stroke-linejoin:miter;stroke-miterlimit:10;stroke-dasharray:none;stroke-opacity:1;fill-opacity:1"
               id="path174" />
          </g>
          <g
             id="g176"
             transform="translate(662.3884,443.4904)"
             style="fill:#fbbb8b;fill-opacity:1;stroke:#000000;stroke-opacity:1">
            <path
               d="M 0,0 V 18.926 L 7.415,14.762 V -3.728"
               style="fill:#fbbb8b;fill-opacity:1;fill-rule:nonzero;stroke:#000000;stroke-width:2;stroke-linecap:butt;stroke-linejoin:miter;stroke-miterlimit:10;stroke-dasharray:none;stroke-opacity:1"
               id="path178" />
          </g>
          <g
             id="g180"
             transform="translate(625.7927,437.7829)"
             style="fill:#fbbb8b;fill-opacity:1;stroke:#000000;stroke-opacity:1">
            <path
               d="M 0,0 V 6.464 L 14.454,-2.418 V -7.9"
               style="fill:#fbbb8b;stroke:#000000;stroke-width:2;stroke-linecap:butt;stroke-linejoin:miter;stroke-miterlimit:10;stroke-dasharray:none;stroke-opacity:1;fill-opacity:1"
               id="path182" />
          </g>
          <g
             id="g184"
             transform="translate(625.577,445.0544)"
             style="fill:#fbbb8b;fill-opacity:1;stroke:#000000;stroke-opacity:1">
            <path
               d="m 0,0 10.852,6.035 15.031,-9.2 v -4.484"
               style="fill:#fbbb8b;stroke:#000000;stroke-width:2;stroke-linecap:butt;stroke-linejoin:miter;stroke-miterlimit:10;stroke-dasharray:none;stroke-opacity:1;fill-opacity:1"
               id="path186" />
          </g>
          <g
             id="g188"
             transform="translate(643.7229,446.6559)"
             style="fill:#fbbb8b;fill-opacity:1;stroke:#000000;stroke-opacity:1">
            <path
               d="m 0,0 5.979,3.266 31.575,-17.767 -31.575,-18.933 -32.421,18.933 15.126,8.028"
               style="fill:#fbbb8b;stroke:#000000;stroke-width:4;stroke-linecap:butt;stroke-linejoin:miter;stroke-miterlimit:10;stroke-dasharray:none;stroke-opacity:1;fill-opacity:1"
               id="path190" />
          </g>
          <g
             id="g192"
             transform="translate(649.7023,449.9223)"
             style="fill:#fbbb8b;fill-opacity:1;stroke:#000000;stroke-opacity:1">
            <path
               d="M 0,0 V 36.602"
               style="fill:#fbbb8b;stroke:#000000;stroke-width:4;stroke-linecap:butt;stroke-linejoin:miter;stroke-miterlimit:10;stroke-dasharray:none;stroke-opacity:1;fill-opacity:1"
               id="path194" />
          </g>
          <g
             id="g196"
             transform="translate(600.0507,432.4052)"
             style="fill:#fbbb8b;fill-opacity:1;stroke:#000000;stroke-opacity:1">
            <path
               d="M 1.7934375,0 17.23,-0.25"
               style="fill:#fbbb8b;fill-opacity:1;stroke:#000000;stroke-width:4;stroke-linecap:butt;stroke-linejoin:miter;stroke-miterlimit:10;stroke-dasharray:none;stroke-opacity:1"
               id="path198" />
          </g>
          <g
             id="g200"
             transform="translate(680.0916,432.4052)"
             style="fill:#fbbb8b;fill-opacity:1;stroke:#000000;stroke-opacity:1">
            <path
               d="M 0,0 H 17.674188"
               style="fill:#fbbb8b;fill-opacity:1;stroke:#000000;stroke-width:4;stroke-linecap:butt;stroke-linejoin:miter;stroke-miterlimit:10;stroke-dasharray:none;stroke-opacity:1"
               id="path202" />
          </g>
          <g
             id="g204"
             transform="translate(625.577,438.1784)"
             style="fill:#fbbb8b;fill-opacity:1;stroke:#000000;stroke-opacity:1">
            <path
               d="M 0,0 15.323,-9.358 26.906,-2.174 26.88,4.264 15.544,-2.215 0.216,5.01 Z"
               style="fill:#fbbb8b;fill-opacity:1;fill-rule:nonzero;stroke:#000000;stroke-opacity:1"
               id="path206" />
          </g>
          <g
             id="g208"
             transform="translate(625.7927,452.89)"
             style="fill:#fbbb8b;fill-opacity:1;stroke:#000000;stroke-opacity:1">
            <path
               d="m 0,0 v -6.862 l 10.903,5.379 V 5.292 L 0,0 v -7.196"
               style="fill:#fbbb8b;fill-opacity:1;fill-rule:nonzero;stroke:#000000;stroke-width:2;stroke-linecap:butt;stroke-linejoin:miter;stroke-miterlimit:10;stroke-dasharray:none;stroke-opacity:1"
               id="path210" />
          </g>
        </g>
      </g>
    </g>
  </g>
</svg>
