<?xml version="1.0" encoding="utf-8"?>
<!-- Generator: Adobe Illustrator 26.4.1, SVG Export Plug-In . SVG Version: 6.00 Build 0)  -->
<svg version="1.1" id="Layer_1" xmlns="http://www.w3.org/2000/svg" xmlns:xlink="http://www.w3.org/1999/xlink" x="0px" y="0px"
	 viewBox="0 0 1920 1080" style="enable-background:new 0 0 1920 1080;" xml:space="preserve">
<style type="text/css">
	.st0{fill:none;stroke:#000000;stroke-width:2;stroke-linecap:round;stroke-linejoin:round;stroke-miterlimit:10;}
</style>
<g>
	<g>
		<path d="M914.78,568.59c-24.8-5.24-44.53-15.04-57.02-35.79c-23.83-39.61-8.07-91.69,35.63-106.98
			c25.84-9.04,54.24-10.82,81.54-15.6c5.78-1.01,11.76-0.9,17.39-1.29c4.39-21.6-3.68-35.21-23.49-40.98
			c-26.72-7.78-52.57-2.31-78.27,5.1c-6.83,1.97-13.56,4.29-22.08,7c0-14.15,0-25.83,0-39.56c41.96-11.53,84.05-17.27,126.17-1.52
			c22.09,8.26,36.87,25.51,38.06,49.22c2.32,46.23,2.22,92.59,3.04,138.89c0.17,9.72,0.03,19.45,0.03,30.41
			c-14.13,0-25.15,0-37.75,0c-1.41-4.77-2.96-10-4.75-16.03c-12.12,7.12-23.41,13.76-36.88,21.68c0,7.52,0.12,15.98-0.02,24.43
			c-0.96,57.56,0.26,115.28-3.6,172.65c-3.91,58.25-43.13,91.67-101.74,92.53c-11.26,0.17-22.73,0.53-33.76-1.29
			c-52.04-8.56-84.39-45.29-84.93-99.17c-0.89-88.07-0.1-176.16-0.09-264.25c0.01-79.48-0.07-158.96-0.11-238.45
			c0-6.52,0-13.04,0-21.2c272.79,0,543.9,0,817,0c0,134.25,0,268.79,0,405.42c-44.05,0-87.56,0-134.63,0
			c7.85,32.68,26.02,53.54,50.75,70.13c25.2,16.9,53.41,21.71,84.34,20.05c0,41.81,0,81.83,0,123.75
			c-6.77,0.41-13.15,1.14-19.53,1.14c-140.73,0.05-281.45-0.03-422.18,0.07c-26.42,0.02-50.93-6.52-75.15-18.83
			c0-13.53,0-26.52,0-43.01c7.91,4.1,13.94,7.34,20.08,10.37c27.29,13.47,55.28,22.55,86.2,14.02c17.14-4.73,23.9-12.02,24.32-26.82
			c0.43-15.35-4.56-22.1-23.14-27.29c-22.3-6.23-45.31-10.11-67.3-17.2c-22.52-7.26-36.46-23.33-39.21-47.78
			c-2.67-23.76,5.7-42.87,24.33-57.46c5.16-4.04,10.99-7.66,17.08-10.01c40.9-15.76,80.36-9.64,119.94,7.35c0,13.69,0,26.03,0,41.64
			c-7.9-3.7-14.07-6.73-20.35-9.49c-24.64-10.85-49.68-18.65-77-10.62c-13.08,3.84-23.49,10.65-24.38,25.26
			c-0.91,14.9,8.89,23.15,21.89,27.05c13.29,3.99,27.01,6.54,40.55,9.69c7.1,1.65,14.34,2.79,21.3,4.89
			c41.93,12.67,57.74,46.53,40.88,87.11c-1.22,2.93-2.38,5.87-4.08,10.07c109.35,0,217.1,0,325.94,0c0-28.69,0-56.26,0-85.27
			c-42.51-9.63-79.44-28.58-101.73-68.45c-9.91-17.72-11.33-33.06-6.02-59.38c35.05,0,70.59,0,107.47,0c0-116.35,0-230.59,0-346.46
			c-247.83,0-495.64,0-745.5,0c-0.56,7.04-1.61,14.04-1.61,21.05c0,150.35,0,300.69,0.39,451.04c0.04,14.43,0.64,29.39,4.41,43.17
			c8.84,32.29,35.67,48.14,72.4,45.17c35.94-2.91,57.6-22.03,61.97-55.72c1.87-14.4,2.93-29,3.07-43.52
			c0.39-43.05,0.14-86.1,0.14-129.16C914.78,583.17,914.78,576.01,914.78,568.59z M994.37,440.51c-15.68,1.11-28.82,2.02-41.95,2.97
			c-2.64,0.19-5.38,0.18-7.87,0.93c-12.57,3.78-25.92,6.16-37.4,12.11c-16.41,8.5-21.59,24.4-17.49,44.48
			c3.2,15.68,14.02,23.06,28.91,25.97c30.14,5.89,53.92-6.6,75.8-24.81C994.37,481.62,994.37,462.03,994.37,440.51z"/>
		<path d="M609.8,727.53c15.96,0,28.37,0,43.02,0c0.49,11.12,0.91,20.63,1.43,32.5c-14.45,0.82-27.37,1.56-43.18,2.46
			c0,26.69,0,53.38,0,81.2c-14.49,0-26.08,0-40.47,0c0-27,0-53.17,0-81.58c-46.85,0-90.99,0-136.57,0
			c-3.32-24.44-5.49-44.65,12.45-64.32c42.85-46.98,83.65-95.82,125.5-144.17c12.18,0,23.9,0,37.82,0
			C609.8,611.14,609.8,667.77,609.8,727.53z M463.85,726.47c37.26,0,70.21,0,104.59,0c0-39.39,0-77.66,0-120.23
			C532.41,647.65,499.2,685.83,463.85,726.47z"/>
		<path d="M485.07,267.82c62.32,0,122.97,0,184.87,0c0,12.16,0,22.99,0,35.65c-47.3,0-93.47,0-141.81,0c0,26.28,0,50.83,0,78.05
			c39.98,0,80,0,121.23,0c0,13.47,0,24.32,0,37.15c-40.18,0-79.67,0-122.66,0c0,46.92,0,92.01,0,138.54c-15.66,0-27.83,0-41.62,0
			C485.07,460.64,485.07,364.54,485.07,267.82z"/>
		<path d="M1454.3,346.19c0,14.44,0,26.21,0,41.47c-8.04-3.68-14.17-6.57-20.37-9.3c-24.6-10.86-49.58-18.74-76.91-10.86
			c-13.07,3.77-23.15,10.4-24.84,24.93c-1.42,12.29,7.18,23.41,23.37,28.06c17.78,5.1,36.17,8.05,54.12,12.62
			c35.85,9.14,52.67,27.41,53.48,57.17c0.86,31.18-16.77,55.99-49.58,66.18c-41.84,12.99-82.22,7.1-121.92-12.51
			c0-13.72,0-26.71,0-43.12c8,4.16,14.06,7.44,20.24,10.49c27.27,13.48,55.26,22.45,86.15,13.94c17.07-4.71,23.54-12.07,24.35-26.83
			c0.92-16.69-9.16-23.77-23.19-27.37c-22.42-5.76-45.3-9.99-67.28-17.07c-22.49-7.24-36.48-23.25-39.25-47.69
			c-2.78-24.59,6.15-44.1,25.76-58.66c5.76-4.28,12.41-7.82,19.19-10.21C1377.35,323.43,1415.54,329.59,1454.3,346.19z"/>
		<path d="M1126.81,373.36c-9.11-1.14-15.49-1.94-22.94-2.87c0-10.42,0-20.01,0-30.72c6.93-1.03,13.28-1.97,22.04-3.27
			c0-19.09,0-38.6,0-60.07c13.78,0,25.21,0,40.38,0c0,19.41,0,39.33,0,61.24c26.56,0,49.52,0,74.34,0c0,12.07,0,22.07,0,34.14
			c-24.28,0-47.22,0-71.93,0c-0.59,8.94-1.45,15.98-1.46,23.01c-0.03,31.76-0.38,63.54,0.47,95.29c0.84,31.42,17.5,43.65,48.67,37
			c7.07-1.51,14.04-3.48,23.69-5.9c0,12.17,0,23.2,0,38.22c-20.98,0.82-41.47,4.08-61.33,1.84c-32.5-3.67-50.56-28.35-51.62-67.26
			c-0.88-32.4-0.27-64.85-0.32-97.28C1126.8,389.53,1126.81,382.32,1126.81,373.36z"/>
		<path class="st0" d="M1424.35,619.31c36.2,0,72.39,0,110.05,0c0-126.2,0-250.41,0-375.91c-9.07-0.59-17.73-1.63-26.39-1.63
			c-240.35-0.09-480.7-0.14-721.05,0.18c-9.96,0.01-19.92,3.72-29.88,5.71"/>
		<path class="st0" d="M755.09,766.39c0.66,3.31,1.33,6.62,1.99,9.94"/>
		<path class="st0" d="M784.97,820.05c41.53,23.8,89.59,20.57,121.8-5.6c15.44-12.54,19.65-29.33,25.6-46.08"/>
		<path class="st0" d="M922.4,547.77c-3.32-0.66-6.64-1.32-9.96-1.99"/>
		<path class="st0" d="M870.62,476.22c5.56-29.72,29.16-38.9,53.87-43.2c28.16-4.9,57.01-5.82,85.56-8.47"/>
		<path class="st0" d="M1535.89,738.56c0,30.82,0,61.64,0,93.85c-11.23,0.58-20.56,1.48-29.88,1.49
			c-100.92,0.1-201.84,0.16-302.76-0.11c-8.63-0.02-17.23-3.18-25.9-3.63c-12.58-0.65-25.5-1.84-37.78,0.16
			c-31.38,5.11-60.84-0.59-90.32-13.32c-4.07-8.18-8.69-17.47-13.31-26.76"/>
		<path class="st0" d="M1450.24,384.8c-4.69-8.59-9.39-17.17-14.66-26.82c-27.2-8.45-55.27-16.42-84.92-6.95
			c-23.89,7.63-46.08,27.84-35.86,59.61"/>
		<path class="st0" d="M1440.28,508.02c-7.2,30.33-31.59,36.13-57.79,36.88c-24.61,0.7-49.43-5.93-71.78-9.01
			c-6.6-13.27-11.22-22.56-15.84-31.85"/>
		<path class="st0" d="M581.8,583.54c-9.3,4.64-21,7.11-27.48,14.28c-34.06,37.65-66.83,76.46-99.97,114.93
			c-7.17,8.32-11.81,17.23-1.08,31.78c59.42,0,121.86,0,184.3,0"/>
		<path class="st0" d="M651.51,285.42c-44.48,0.66-88.97,1.32-133.45,1.99"/>
		<path class="st0" d="M1149.47,504.04c-1.27,33.89,36.54,50.7,77.68,37.76"/>
		<path class="st0" d="M1191.3,670.99c-4.69-8.59-9.39-17.17-14.66-26.82c-27.2-8.45-55.27-16.42-84.92-6.95
			c-23.89,7.63-46.08,27.84-35.86,59.61"/>
		<path class="st0" d="M1014.03,400.69c-0.3-29.34-13.94-46.94-47.9-50.84c-25.41-2.91-51.72,1.51-77.55,3.56
			c-2.9,0.23-5.34,6.21-8,9.52"/>
		<path class="st0" d="M1414.39,631.24c-4.7,21.58,8.34,37.38,20.41,51.25c19.08,21.92,43.11,37.75,73.17,42.4
			c6.89,1.06,13.32,5.07,19.95,7.72"/>
		<path class="st0" d="M631.59,400.69c-40.5,0-81,0-121.5,0"/>
		<path class="st0" d="M1227.16,354.98c-35.85,0-71.71,0-107.56,0"/>
		<path class="st0" d="M1008.05,519.94c-23.9,11.26-47.8,22.52-71.71,33.79"/>
	</g>
</g>
</svg>
